0
SECTION
2
HEADER
9
$INSUNITS
70
4
0
ENDSEC
0
SECTION
2
TABLES
0
TABLE
2
LTYPE
0
LTYPE
72
65
70
0
2
CONTINUOUS
3
______
73
0
40
0
0
LTYPE
72
65
70
0
2
DASHED
3
_ _ _ 
73
2
40
7.5
49
5
49
-2.5
0
LTYPE
72
65
70
0
2
DOTTED
3
. . . 
73
2
40
1.5
49
0.5
49
-1
0
ENDTAB
0
TABLE
2
LAYER
0
ENDTAB
0
ENDSEC
0
SECTION
2
ENTITIES
0
LINE
8
0
6
CONTINUOUS
10
285.3764974
20
-140.625
11
295.475
21
-140.625
0
LINE
8
0
6
CONTINUOUS
10
295.475
20
-140.625
11
295.475
21
-83.625
0
LINE
8
0
6
CONTINUOUS
10
295.475
20
-83.625
11
277.475
21
-83.625
0
LINE
8
0
6
CONTINUOUS
10
275.875
20
-83.625
11
241.475
21
-83.625
0
LINE
8
0
6
CONTINUOUS
10
241.475
20
-83.625
11
241.475
21
-115.2784586
0
LINE
8
0
6
CONTINUOUS
10
204.5552704
20
-137.8414633
11
217.3872324
21
-145.25
0
LINE
8
0
6
CONTINUOUS
10
233.841715
20
-154.75
11
270.373201
21
-175.8414633
0
LINE
8
0
6
CONTINUOUS
10
270.373201
20
-175.8414633
11
289.373201
21
-142.9324979
0
LINE
8
0
6
CONTINUOUS
10
289.373201
20
-142.9324979
11
285.3764974
21
-140.625
0
LINE
8
0
6
CONTINUOUS
10
241.475
20
-115.2784586
11
223.5552704
21
-104.9324979
0
LINE
8
0
6
CONTINUOUS
10
223.5552704
20
-104.9324979
11
204.5552704
21
-137.8414633
0
LINE
8
0
6
CONTINUOUS
10
277.475
20
-83.625
11
277.475
21
-71.625
0
LINE
8
0
6
CONTINUOUS
10
277.475
20
-71.625
11
275.875
21
-71.625
0
LINE
8
0
6
CONTINUOUS
10
275.875
20
-71.625
11
275.875
21
-83.625
0
LINE
8
0
6
CONTINUOUS
10
161.875
20
-154.75
11
233.841715
21
-154.75
0
LINE
8
0
6
CONTINUOUS
10
217.3872324
20
-145.25
11
161.875
21
-145.25
0
LINE
8
0
6
CONTINUOUS
10
161.875
20
-145.25
11
161.875
21
-154.75
0
ENDSEC
0
EOF