0
SECTION
2
HEADER
9
$INSUNITS
70
4
0
ENDSEC
0
SECTION
2
TABLES
0
TABLE
2
LTYPE
0
LTYPE
72
65
70
0
2
CONTINUOUS
3
______
73
0
40
0
0
LTYPE
72
65
70
0
2
DASHED
3
_ _ _ 
73
2
40
7.5
49
5
49
-2.5
0
LTYPE
72
65
70
0
2
DOTTED
3
. . . 
73
2
40
1.5
49
0.5
49
-1
0
ENDTAB
0
TABLE
2
LAYER
0
ENDTAB
0
ENDSEC
0
SECTION
2
ENTITIES
0
LINE
8
0
6
CONTINUOUS
10
279.975
20
-109.625
11
292.975
21
-109.625
0
LINE
8
0
6
CONTINUOUS
10
293.475
20
-109.125
11
293.475
21
-74.125
0
LINE
8
0
6
CONTINUOUS
10
292.975
20
-73.625
11
279.975
21
-73.625
0
LINE
8
0
6
CONTINUOUS
10
279.475
20
-74.125
11
279.475
21
-109.125
0
ARC
8
0
6
CONTINUOUS
10
292.975
20
-109.125
40
0.5
50
270
51
0
0
ARC
8
0
6
CONTINUOUS
10
292.975
20
-74.125
40
0.5
50
0
51
90
0
ARC
8
0
6
CONTINUOUS
10
279.975
20
-74.125
40
0.5
50
90
51
180
0
ARC
8
0
6
CONTINUOUS
10
279.975
20
-109.125
40
0.5
50
180
51
270
0
LINE
8
0
6
CONTINUOUS
10
280.165
20
-109.655
11
292.785
21
-109.655
0
LINE
8
0
6
CONTINUOUS
10
292.885
20
-109.555
11
292.885
21
-107.095
0
LINE
8
0
6
CONTINUOUS
10
292.785
20
-106.995
11
280.165
21
-106.995
0
LINE
8
0
6
CONTINUOUS
10
280.065
20
-107.095
11
280.065
21
-109.555
0
ARC
8
0
6
CONTINUOUS
10
292.785
20
-109.555
40
0.1
50
270
51
0
0
ARC
8
0
6
CONTINUOUS
10
292.785
20
-107.095
40
0.1
50
0
51
90
0
ARC
8
0
6
CONTINUOUS
10
280.165
20
-107.095
40
0.1
50
90
51
180
0
ARC
8
0
6
CONTINUOUS
10
280.165
20
-109.555
40
0.1
50
180
51
270
0
LINE
8
0
6
CONTINUOUS
10
281.075
20
-104.675
11
291.875
21
-104.675
0
LINE
8
0
6
CONTINUOUS
10
291.875
20
-104.675
11
291.875
21
-80.075
0
LINE
8
0
6
CONTINUOUS
10
291.875
20
-80.075
11
281.075
21
-80.075
0
LINE
8
0
6
CONTINUOUS
10
281.075
20
-80.075
11
281.075
21
-104.675
0
ENDSEC
0
EOF