0
SECTION
2
HEADER
9
$INSUNITS
70
4
0
ENDSEC
0
SECTION
2
TABLES
0
TABLE
2
LTYPE
0
LTYPE
72
65
70
0
2
CONTINUOUS
3
______
73
0
40
0
0
LTYPE
72
65
70
0
2
DASHED
3
_ _ _ 
73
2
40
7.5
49
5
49
-2.5
0
LTYPE
72
65
70
0
2
DOTTED
3
. . . 
73
2
40
1.5
49
0.5
49
-1
0
ENDTAB
0
TABLE
2
LAYER
0
ENDTAB
0
ENDSEC
0
SECTION
2
ENTITIES
0
LINE
8
0
6
CONTINUOUS
10
134.125
20
-130
11
138.125
21
-130
0
LINE
8
0
6
CONTINUOUS
10
138.125
20
-130
11
138.125
21
-75
0
LINE
8
0
6
CONTINUOUS
10
138.125
20
-75
11
134.125
21
-75
0
LINE
8
0
6
CONTINUOUS
10
134.125
20
-75
11
134.125
21
-130
0
LINE
8
0
6
CONTINUOUS
10
295.475
20
-124.625
11
299.475
21
-124.625
0
LINE
8
0
6
CONTINUOUS
10
299.475
20
-124.625
11
299.475
21
-84.625
0
LINE
8
0
6
CONTINUOUS
10
299.475
20
-84.625
11
295.475
21
-84.625
0
LINE
8
0
6
CONTINUOUS
10
295.475
20
-84.625
11
295.475
21
-124.625
0
LINE
8
0
6
CONTINUOUS
10
283.0379424
20
-172.9054877
11
286.502044
21
-174.9054877
0
LINE
8
0
6
CONTINUOUS
10
286.502044
20
-174.9054877
11
299.002044
21
-153.2548527
0
LINE
8
0
6
CONTINUOUS
10
299.002044
20
-153.2548527
11
295.5379424
21
-151.2548527
0
LINE
8
0
6
CONTINUOUS
10
295.5379424
20
-151.2548527
11
283.0379424
21
-172.9054877
0
LINE
8
0
6
CONTINUOUS
10
148.1875
20
-64.5
11
173.1875
21
-64.5
0
LINE
8
0
6
CONTINUOUS
10
173.1875
20
-64.5
11
173.1875
21
-60.5
0
LINE
8
0
6
CONTINUOUS
10
173.1875
20
-60.5
11
148.1875
21
-60.5
0
LINE
8
0
6
CONTINUOUS
10
148.1875
20
-60.5
11
148.1875
21
-64.5
0
LINE
8
0
6
CONTINUOUS
10
149.375
20
-163.5
11
174.375
21
-163.5
0
LINE
8
0
6
CONTINUOUS
10
174.375
20
-163.5
11
174.375
21
-159.5
0
LINE
8
0
6
CONTINUOUS
10
174.375
20
-159.5
11
149.375
21
-159.5
0
LINE
8
0
6
CONTINUOUS
10
149.375
20
-159.5
11
149.375
21
-163.5
0
LINE
8
0
6
CONTINUOUS
10
196.875
20
-158.75
11
221.875
21
-158.75
0
LINE
8
0
6
CONTINUOUS
10
221.875
20
-158.75
11
221.875
21
-154.75
0
LINE
8
0
6
CONTINUOUS
10
221.875
20
-154.75
11
196.875
21
-154.75
0
LINE
8
0
6
CONTINUOUS
10
196.875
20
-154.75
11
196.875
21
-158.75
0
LINE
8
0
6
CONTINUOUS
10
249.3206422
20
-168.3055648
11
270.9712772
21
-180.8055648
0
LINE
8
0
6
CONTINUOUS
10
270.9712772
20
-180.8055648
11
272.9712772
21
-177.3414632
0
LINE
8
0
6
CONTINUOUS
10
272.9712772
20
-177.3414632
11
251.3206422
21
-164.8414632
0
LINE
8
0
6
CONTINUOUS
10
251.3206422
20
-164.8414632
11
249.3206422
21
-168.3055648
0
LINE
8
0
6
CONTINUOUS
10
204.375
20
-57.375
11
214.375
21
-57.375
0
LINE
8
0
6
CONTINUOUS
10
214.375
20
-57.375
11
214.375
21
-53.375
0
LINE
8
0
6
CONTINUOUS
10
214.375
20
-53.375
11
204.375
21
-53.375
0
LINE
8
0
6
CONTINUOUS
10
204.375
20
-53.375
11
204.375
21
-57.375
0
LINE
8
0
6
CONTINUOUS
10
242.375
20
-62.125
11
252.375
21
-62.125
0
LINE
8
0
6
CONTINUOUS
10
252.375
20
-62.125
11
252.375
21
-58.125
0
LINE
8
0
6
CONTINUOUS
10
252.375
20
-58.125
11
242.375
21
-58.125
0
LINE
8
0
6
CONTINUOUS
10
242.375
20
-58.125
11
242.375
21
-62.125
0
ENDSEC
0
EOF