0
SECTION
2
HEADER
9
$INSUNITS
70
4
0
ENDSEC
0
SECTION
2
TABLES
0
TABLE
2
LTYPE
0
LTYPE
72
65
70
0
2
CONTINUOUS
3
______
73
0
40
0
0
LTYPE
72
65
70
0
2
DASHED
3
_ _ _ 
73
2
40
7.5
49
5
49
-2.5
0
LTYPE
72
65
70
0
2
DOTTED
3
. . . 
73
2
40
1.5
49
0.5
49
-1
0
ENDTAB
0
TABLE
2
LAYER
0
ENDTAB
0
ENDSEC
0
SECTION
2
ENTITIES
0
LINE
8
0
6
CONTINUOUS
10
146.375
20
-159
11
158.375
21
-159
0
LINE
8
0
6
CONTINUOUS
10
161.375
20
-156
11
161.375
21
-144
0
LINE
8
0
6
CONTINUOUS
10
158.375
20
-141
11
146.375
21
-141
0
LINE
8
0
6
CONTINUOUS
10
143.375
20
-144
11
143.375
21
-156
0
LINE
8
0
6
CONTINUOUS
10
165.375
20
-159
11
177.375
21
-159
0
LINE
8
0
6
CONTINUOUS
10
180.375
20
-156
11
180.375
21
-144
0
LINE
8
0
6
CONTINUOUS
10
177.375
20
-141
11
165.375
21
-141
0
LINE
8
0
6
CONTINUOUS
10
162.375
20
-144
11
162.375
21
-156
0
LINE
8
0
6
CONTINUOUS
10
165.375
20
-140
11
177.375
21
-140
0
LINE
8
0
6
CONTINUOUS
10
180.375
20
-137
11
180.375
21
-125
0
LINE
8
0
6
CONTINUOUS
10
177.375
20
-122
11
165.375
21
-122
0
LINE
8
0
6
CONTINUOUS
10
162.375
20
-125
11
162.375
21
-137
0
LINE
8
0
6
CONTINUOUS
10
165.375
20
-121
11
177.375
21
-121
0
LINE
8
0
6
CONTINUOUS
10
180.375
20
-118
11
180.375
21
-106
0
LINE
8
0
6
CONTINUOUS
10
177.375
20
-103
11
165.375
21
-103
0
LINE
8
0
6
CONTINUOUS
10
162.375
20
-106
11
162.375
21
-118
0
LINE
8
0
6
CONTINUOUS
10
165.375
20
-102
11
177.375
21
-102
0
LINE
8
0
6
CONTINUOUS
10
180.375
20
-99
11
180.375
21
-87
0
LINE
8
0
6
CONTINUOUS
10
177.375
20
-84
11
165.375
21
-84
0
LINE
8
0
6
CONTINUOUS
10
162.375
20
-87
11
162.375
21
-99
0
LINE
8
0
6
CONTINUOUS
10
165.375
20
-83
11
177.375
21
-83
0
LINE
8
0
6
CONTINUOUS
10
180.375
20
-80
11
180.375
21
-68
0
LINE
8
0
6
CONTINUOUS
10
177.375
20
-65
11
165.375
21
-65
0
LINE
8
0
6
CONTINUOUS
10
162.375
20
-68
11
162.375
21
-80
0
LINE
8
0
6
CONTINUOUS
10
184.375
20
-154.25
11
196.375
21
-154.25
0
LINE
8
0
6
CONTINUOUS
10
199.375
20
-151.25
11
199.375
21
-139.25
0
LINE
8
0
6
CONTINUOUS
10
196.375
20
-136.25
11
184.375
21
-136.25
0
LINE
8
0
6
CONTINUOUS
10
181.375
20
-139.25
11
181.375
21
-151.25
0
LINE
8
0
6
CONTINUOUS
10
184.375
20
-135.25
11
196.375
21
-135.25
0
LINE
8
0
6
CONTINUOUS
10
199.375
20
-132.25
11
199.375
21
-120.25
0
LINE
8
0
6
CONTINUOUS
10
196.375
20
-117.25
11
184.375
21
-117.25
0
LINE
8
0
6
CONTINUOUS
10
181.375
20
-120.25
11
181.375
21
-132.25
0
LINE
8
0
6
CONTINUOUS
10
184.375
20
-116.25
11
196.375
21
-116.25
0
LINE
8
0
6
CONTINUOUS
10
199.375
20
-113.25
11
199.375
21
-101.25
0
LINE
8
0
6
CONTINUOUS
10
196.375
20
-98.25
11
184.375
21
-98.25
0
LINE
8
0
6
CONTINUOUS
10
181.375
20
-101.25
11
181.375
21
-113.25
0
LINE
8
0
6
CONTINUOUS
10
184.375
20
-97.25
11
196.375
21
-97.25
0
LINE
8
0
6
CONTINUOUS
10
199.375
20
-94.25
11
199.375
21
-82.25
0
LINE
8
0
6
CONTINUOUS
10
196.375
20
-79.25
11
184.375
21
-79.25
0
LINE
8
0
6
CONTINUOUS
10
181.375
20
-82.25
11
181.375
21
-94.25
0
LINE
8
0
6
CONTINUOUS
10
184.375
20
-78.25
11
196.375
21
-78.25
0
LINE
8
0
6
CONTINUOUS
10
199.375
20
-75.25
11
199.375
21
-63.25
0
LINE
8
0
6
CONTINUOUS
10
196.375
20
-60.25
11
184.375
21
-60.25
0
LINE
8
0
6
CONTINUOUS
10
181.375
20
-63.25
11
181.375
21
-75.25
0
LINE
8
0
6
CONTINUOUS
10
203.375
20
-151.875
11
215.375
21
-151.875
0
LINE
8
0
6
CONTINUOUS
10
218.375
20
-148.875
11
218.375
21
-136.875
0
LINE
8
0
6
CONTINUOUS
10
215.375
20
-133.875
11
203.375
21
-133.875
0
LINE
8
0
6
CONTINUOUS
10
200.375
20
-136.875
11
200.375
21
-148.875
0
LINE
8
0
6
CONTINUOUS
10
203.375
20
-132.875
11
215.375
21
-132.875
0
LINE
8
0
6
CONTINUOUS
10
218.375
20
-129.875
11
218.375
21
-117.875
0
LINE
8
0
6
CONTINUOUS
10
215.375
20
-114.875
11
203.375
21
-114.875
0
LINE
8
0
6
CONTINUOUS
10
200.375
20
-117.875
11
200.375
21
-129.875
0
LINE
8
0
6
CONTINUOUS
10
203.375
20
-113.875
11
215.375
21
-113.875
0
LINE
8
0
6
CONTINUOUS
10
218.375
20
-110.875
11
218.375
21
-98.875
0
LINE
8
0
6
CONTINUOUS
10
215.375
20
-95.875
11
203.375
21
-95.875
0
LINE
8
0
6
CONTINUOUS
10
200.375
20
-98.875
11
200.375
21
-110.875
0
LINE
8
0
6
CONTINUOUS
10
203.375
20
-94.875
11
215.375
21
-94.875
0
LINE
8
0
6
CONTINUOUS
10
218.375
20
-91.875
11
218.375
21
-79.875
0
LINE
8
0
6
CONTINUOUS
10
215.375
20
-76.875
11
203.375
21
-76.875
0
LINE
8
0
6
CONTINUOUS
10
200.375
20
-79.875
11
200.375
21
-91.875
0
LINE
8
0
6
CONTINUOUS
10
203.375
20
-75.875
11
215.375
21
-75.875
0
LINE
8
0
6
CONTINUOUS
10
218.375
20
-72.875
11
218.375
21
-60.875
0
LINE
8
0
6
CONTINUOUS
10
215.375
20
-57.875
11
203.375
21
-57.875
0
LINE
8
0
6
CONTINUOUS
10
200.375
20
-60.875
11
200.375
21
-72.875
0
LINE
8
0
6
CONTINUOUS
10
222.375
20
-135.25
11
234.375
21
-135.25
0
LINE
8
0
6
CONTINUOUS
10
237.375
20
-132.25
11
237.375
21
-120.25
0
LINE
8
0
6
CONTINUOUS
10
234.375
20
-117.25
11
222.375
21
-117.25
0
LINE
8
0
6
CONTINUOUS
10
219.375
20
-120.25
11
219.375
21
-132.25
0
LINE
8
0
6
CONTINUOUS
10
222.375
20
-116.25
11
234.375
21
-116.25
0
LINE
8
0
6
CONTINUOUS
10
237.375
20
-113.25
11
237.375
21
-101.25
0
LINE
8
0
6
CONTINUOUS
10
234.375
20
-98.25
11
222.375
21
-98.25
0
LINE
8
0
6
CONTINUOUS
10
219.375
20
-101.25
11
219.375
21
-113.25
0
LINE
8
0
6
CONTINUOUS
10
222.375
20
-97.25
11
234.375
21
-97.25
0
LINE
8
0
6
CONTINUOUS
10
237.375
20
-94.25
11
237.375
21
-82.25
0
LINE
8
0
6
CONTINUOUS
10
234.375
20
-79.25
11
222.375
21
-79.25
0
LINE
8
0
6
CONTINUOUS
10
219.375
20
-82.25
11
219.375
21
-94.25
0
LINE
8
0
6
CONTINUOUS
10
222.375
20
-78.25
11
234.375
21
-78.25
0
LINE
8
0
6
CONTINUOUS
10
237.375
20
-75.25
11
237.375
21
-63.25
0
LINE
8
0
6
CONTINUOUS
10
234.375
20
-60.25
11
222.375
21
-60.25
0
LINE
8
0
6
CONTINUOUS
10
219.375
20
-63.25
11
219.375
21
-75.25
0
LINE
8
0
6
CONTINUOUS
10
241.375
20
-137.625
11
253.375
21
-137.625
0
LINE
8
0
6
CONTINUOUS
10
256.375
20
-134.625
11
256.375
21
-122.625
0
LINE
8
0
6
CONTINUOUS
10
253.375
20
-119.625
11
241.375
21
-119.625
0
LINE
8
0
6
CONTINUOUS
10
238.375
20
-122.625
11
238.375
21
-134.625
0
LINE
8
0
6
CONTINUOUS
10
241.375
20
-118.625
11
253.375
21
-118.625
0
LINE
8
0
6
CONTINUOUS
10
256.375
20
-115.625
11
256.375
21
-103.625
0
LINE
8
0
6
CONTINUOUS
10
253.375
20
-100.625
11
241.375
21
-100.625
0
LINE
8
0
6
CONTINUOUS
10
238.375
20
-103.625
11
238.375
21
-115.625
0
LINE
8
0
6
CONTINUOUS
10
241.375
20
-99.625
11
253.375
21
-99.625
0
LINE
8
0
6
CONTINUOUS
10
256.375
20
-96.625
11
256.375
21
-84.625
0
LINE
8
0
6
CONTINUOUS
10
253.375
20
-81.625
11
241.375
21
-81.625
0
LINE
8
0
6
CONTINUOUS
10
238.375
20
-84.625
11
238.375
21
-96.625
0
LINE
8
0
6
CONTINUOUS
10
241.375
20
-80.625
11
253.375
21
-80.625
0
LINE
8
0
6
CONTINUOUS
10
256.375
20
-77.625
11
256.375
21
-65.625
0
LINE
8
0
6
CONTINUOUS
10
253.375
20
-62.625
11
241.375
21
-62.625
0
LINE
8
0
6
CONTINUOUS
10
238.375
20
-65.625
11
238.375
21
-77.625
0
LINE
8
0
6
CONTINUOUS
10
260.375
20
-90.125
11
272.375
21
-90.125
0
LINE
8
0
6
CONTINUOUS
10
275.375
20
-87.125
11
275.375
21
-75.125
0
LINE
8
0
6
CONTINUOUS
10
272.375
20
-72.125
11
260.375
21
-72.125
0
LINE
8
0
6
CONTINUOUS
10
257.375
20
-75.125
11
257.375
21
-87.125
0
LINE
8
0
6
CONTINUOUS
10
248.972566
20
-162.9084505
11
259.3648708
21
-168.9084505
0
LINE
8
0
6
CONTINUOUS
10
263.462947
20
-167.8103743
11
269.462947
21
-157.4180695
0
LINE
8
0
6
CONTINUOUS
10
268.3648708
20
-153.3199933
11
257.972566
21
-147.3199933
0
LINE
8
0
6
CONTINUOUS
10
253.8744898
20
-148.4180695
11
247.8744898
21
-158.8103743
0
LINE
8
0
6
CONTINUOUS
10
265.4270487
20
-172.4084505
11
275.8193535
21
-178.4084505
0
LINE
8
0
6
CONTINUOUS
10
279.9174297
20
-177.3103743
11
285.9174297
21
-166.9180695
0
LINE
8
0
6
CONTINUOUS
10
284.8193535
20
-162.8199933
11
274.4270487
21
-156.8199933
0
LINE
8
0
6
CONTINUOUS
10
270.3289725
20
-157.9180695
11
264.3289725
21
-168.3103743
0
ARC
8
0
6
CONTINUOUS
10
158.375
20
-156
40
3
50
270
51
0
0
ARC
8
0
6
CONTINUOUS
10
158.375
20
-144
40
3
50
0
51
90
0
ARC
8
0
6
CONTINUOUS
10
146.375
20
-144
40
3
50
90
51
180
0
ARC
8
0
6
CONTINUOUS
10
146.375
20
-156
40
3
50
180
51
270
0
ARC
8
0
6
CONTINUOUS
10
177.375
20
-156
40
3
50
270
51
0
0
ARC
8
0
6
CONTINUOUS
10
177.375
20
-144
40
3
50
0
51
90
0
ARC
8
0
6
CONTINUOUS
10
165.375
20
-144
40
3
50
90
51
180
0
ARC
8
0
6
CONTINUOUS
10
165.375
20
-156
40
3
50
180
51
270
0
ARC
8
0
6
CONTINUOUS
10
177.375
20
-137
40
3
50
270
51
0
0
ARC
8
0
6
CONTINUOUS
10
177.375
20
-125
40
3
50
0
51
90
0
ARC
8
0
6
CONTINUOUS
10
165.375
20
-125
40
3
50
90
51
180
0
ARC
8
0
6
CONTINUOUS
10
165.375
20
-137
40
3
50
180
51
270
0
ARC
8
0
6
CONTINUOUS
10
177.375
20
-118
40
3
50
270
51
0
0
ARC
8
0
6
CONTINUOUS
10
177.375
20
-106
40
3
50
0
51
90
0
ARC
8
0
6
CONTINUOUS
10
165.375
20
-106
40
3
50
90
51
180
0
ARC
8
0
6
CONTINUOUS
10
165.375
20
-118
40
3
50
180
51
270
0
ARC
8
0
6
CONTINUOUS
10
177.375
20
-99
40
3
50
270
51
0
0
ARC
8
0
6
CONTINUOUS
10
177.375
20
-87
40
3
50
0
51
90
0
ARC
8
0
6
CONTINUOUS
10
165.375
20
-87
40
3
50
90
51
180
0
ARC
8
0
6
CONTINUOUS
10
165.375
20
-99
40
3
50
180
51
270
0
ARC
8
0
6
CONTINUOUS
10
177.375
20
-80
40
3
50
270
51
0
0
ARC
8
0
6
CONTINUOUS
10
177.375
20
-68
40
3
50
0
51
90
0
ARC
8
0
6
CONTINUOUS
10
165.375
20
-68
40
3
50
90
51
180
0
ARC
8
0
6
CONTINUOUS
10
165.375
20
-80
40
3
50
180
51
270
0
ARC
8
0
6
CONTINUOUS
10
196.375
20
-151.25
40
3
50
270
51
0
0
ARC
8
0
6
CONTINUOUS
10
196.375
20
-139.25
40
3
50
0
51
90
0
ARC
8
0
6
CONTINUOUS
10
184.375
20
-139.25
40
3
50
90
51
180
0
ARC
8
0
6
CONTINUOUS
10
184.375
20
-151.25
40
3
50
180
51
270
0
ARC
8
0
6
CONTINUOUS
10
196.375
20
-132.25
40
3
50
270
51
0
0
ARC
8
0
6
CONTINUOUS
10
196.375
20
-120.25
40
3
50
0
51
90
0
ARC
8
0
6
CONTINUOUS
10
184.375
20
-120.25
40
3
50
90
51
180
0
ARC
8
0
6
CONTINUOUS
10
184.375
20
-132.25
40
3
50
180
51
270
0
ARC
8
0
6
CONTINUOUS
10
196.375
20
-113.25
40
3
50
270
51
0
0
ARC
8
0
6
CONTINUOUS
10
196.375
20
-101.25
40
3
50
0
51
90
0
ARC
8
0
6
CONTINUOUS
10
184.375
20
-101.25
40
3
50
90
51
180
0
ARC
8
0
6
CONTINUOUS
10
184.375
20
-113.25
40
3
50
180
51
270
0
ARC
8
0
6
CONTINUOUS
10
196.375
20
-94.25
40
3
50
270
51
0
0
ARC
8
0
6
CONTINUOUS
10
196.375
20
-82.25
40
3
50
0
51
90
0
ARC
8
0
6
CONTINUOUS
10
184.375
20
-82.25
40
3
50
90
51
180
0
ARC
8
0
6
CONTINUOUS
10
184.375
20
-94.25
40
3
50
180
51
270
0
ARC
8
0
6
CONTINUOUS
10
196.375
20
-75.25
40
3
50
270
51
0
0
ARC
8
0
6
CONTINUOUS
10
196.375
20
-63.25
40
3
50
0
51
90
0
ARC
8
0
6
CONTINUOUS
10
184.375
20
-63.25
40
3
50
90
51
180
0
ARC
8
0
6
CONTINUOUS
10
184.375
20
-75.25
40
3
50
180
51
270
0
ARC
8
0
6
CONTINUOUS
10
215.375
20
-148.875
40
3
50
270
51
0
0
ARC
8
0
6
CONTINUOUS
10
215.375
20
-136.875
40
3
50
0
51
90
0
ARC
8
0
6
CONTINUOUS
10
203.375
20
-136.875
40
3
50
90
51
180
0
ARC
8
0
6
CONTINUOUS
10
203.375
20
-148.875
40
3
50
180
51
270
0
ARC
8
0
6
CONTINUOUS
10
215.375
20
-129.875
40
3
50
270
51
0
0
ARC
8
0
6
CONTINUOUS
10
215.375
20
-117.875
40
3
50
0
51
90
0
ARC
8
0
6
CONTINUOUS
10
203.375
20
-117.875
40
3
50
90
51
180
0
ARC
8
0
6
CONTINUOUS
10
203.375
20
-129.875
40
3
50
180
51
270
0
ARC
8
0
6
CONTINUOUS
10
215.375
20
-110.875
40
3
50
270
51
0
0
ARC
8
0
6
CONTINUOUS
10
215.375
20
-98.875
40
3
50
0
51
90
0
ARC
8
0
6
CONTINUOUS
10
203.375
20
-98.875
40
3
50
90
51
180
0
ARC
8
0
6
CONTINUOUS
10
203.375
20
-110.875
40
3
50
180
51
270
0
ARC
8
0
6
CONTINUOUS
10
215.375
20
-91.875
40
3
50
270
51
0
0
ARC
8
0
6
CONTINUOUS
10
215.375
20
-79.875
40
3
50
0
51
90
0
ARC
8
0
6
CONTINUOUS
10
203.375
20
-79.875
40
3
50
90
51
180
0
ARC
8
0
6
CONTINUOUS
10
203.375
20
-91.875
40
3
50
180
51
270
0
ARC
8
0
6
CONTINUOUS
10
215.375
20
-72.875
40
3
50
270
51
0
0
ARC
8
0
6
CONTINUOUS
10
215.375
20
-60.875
40
3
50
0
51
90
0
ARC
8
0
6
CONTINUOUS
10
203.375
20
-60.875
40
3
50
90
51
180
0
ARC
8
0
6
CONTINUOUS
10
203.375
20
-72.875
40
3
50
180
51
270
0
ARC
8
0
6
CONTINUOUS
10
234.375
20
-132.25
40
3
50
270
51
0
0
ARC
8
0
6
CONTINUOUS
10
234.375
20
-120.25
40
3
50
0
51
90
0
ARC
8
0
6
CONTINUOUS
10
222.375
20
-120.25
40
3
50
90
51
180
0
ARC
8
0
6
CONTINUOUS
10
222.375
20
-132.25
40
3
50
180
51
270
0
ARC
8
0
6
CONTINUOUS
10
234.375
20
-113.25
40
3
50
270
51
0
0
ARC
8
0
6
CONTINUOUS
10
234.375
20
-101.25
40
3
50
0
51
90
0
ARC
8
0
6
CONTINUOUS
10
222.375
20
-101.25
40
3
50
90
51
180
0
ARC
8
0
6
CONTINUOUS
10
222.375
20
-113.25
40
3
50
180
51
270
0
ARC
8
0
6
CONTINUOUS
10
234.375
20
-94.25
40
3
50
270
51
0
0
ARC
8
0
6
CONTINUOUS
10
234.375
20
-82.25
40
3
50
0
51
90
0
ARC
8
0
6
CONTINUOUS
10
222.375
20
-82.25
40
3
50
90
51
180
0
ARC
8
0
6
CONTINUOUS
10
222.375
20
-94.25
40
3
50
180
51
270
0
ARC
8
0
6
CONTINUOUS
10
234.375
20
-75.25
40
3
50
270
51
0
0
ARC
8
0
6
CONTINUOUS
10
234.375
20
-63.25
40
3
50
0
51
90
0
ARC
8
0
6
CONTINUOUS
10
222.375
20
-63.25
40
3
50
90
51
180
0
ARC
8
0
6
CONTINUOUS
10
222.375
20
-75.25
40
3
50
180
51
270
0
ARC
8
0
6
CONTINUOUS
10
253.375
20
-134.625
40
3
50
270
51
0
0
ARC
8
0
6
CONTINUOUS
10
253.375
20
-122.625
40
3
50
0
51
90
0
ARC
8
0
6
CONTINUOUS
10
241.375
20
-122.625
40
3
50
90
51
180
0
ARC
8
0
6
CONTINUOUS
10
241.375
20
-134.625
40
3
50
180
51
270
0
ARC
8
0
6
CONTINUOUS
10
253.375
20
-115.625
40
3
50
270
51
0
0
ARC
8
0
6
CONTINUOUS
10
253.375
20
-103.625
40
3
50
0
51
90
0
ARC
8
0
6
CONTINUOUS
10
241.375
20
-103.625
40
3
50
90
51
180
0
ARC
8
0
6
CONTINUOUS
10
241.375
20
-115.625
40
3
50
180
51
270
0
ARC
8
0
6
CONTINUOUS
10
253.375
20
-96.625
40
3
50
270
51
0
0
ARC
8
0
6
CONTINUOUS
10
253.375
20
-84.625
40
3
50
0
51
90
0
ARC
8
0
6
CONTINUOUS
10
241.375
20
-84.625
40
3
50
90
51
180
0
ARC
8
0
6
CONTINUOUS
10
241.375
20
-96.625
40
3
50
180
51
270
0
ARC
8
0
6
CONTINUOUS
10
253.375
20
-77.625
40
3
50
270
51
0
0
ARC
8
0
6
CONTINUOUS
10
253.375
20
-65.625
40
3
50
0
51
90
0
ARC
8
0
6
CONTINUOUS
10
241.375
20
-65.625
40
3
50
90
51
180
0
ARC
8
0
6
CONTINUOUS
10
241.375
20
-77.625
40
3
50
180
51
270
0
ARC
8
0
6
CONTINUOUS
10
272.375
20
-87.125
40
3
50
270
51
0
0
ARC
8
0
6
CONTINUOUS
10
272.375
20
-75.125
40
3
50
0
51
90
0
ARC
8
0
6
CONTINUOUS
10
260.375
20
-75.125
40
3
50
90
51
180
0
ARC
8
0
6
CONTINUOUS
10
260.375
20
-87.125
40
3
50
180
51
270
0
ARC
8
0
6
CONTINUOUS
10
260.8648708
20
-166.3103743
40
3
50
239.9999999
51
329.9999999
0
ARC
8
0
6
CONTINUOUS
10
266.8648708
20
-155.9180695
40
3
50
329.9999999
51
59.9999999
0
ARC
8
0
6
CONTINUOUS
10
256.472566
20
-149.9180695
40
3
50
59.9999999
51
149.9999999
0
ARC
8
0
6
CONTINUOUS
10
250.472566
20
-160.3103743
40
3
50
149.9999999
51
239.9999999
0
ARC
8
0
6
CONTINUOUS
10
277.3193535
20
-175.8103743
40
3
50
239.9999999
51
329.9999999
0
ARC
8
0
6
CONTINUOUS
10
283.3193535
20
-165.4180695
40
3
50
329.9999999
51
59.9999999
0
ARC
8
0
6
CONTINUOUS
10
272.9270487
20
-159.4180695
40
3
50
59.9999999
51
149.9999999
0
ARC
8
0
6
CONTINUOUS
10
266.9270487
20
-169.8103743
40
3
50
149.9999999
51
239.9999999
0
LINE
8
0
6
CONTINUOUS
10
141.75
20
-140
11
158.25
21
-140
0
LINE
8
0
6
CONTINUOUS
10
161.25
20
-137
11
161.25
21
-125
0
LINE
8
0
6
CONTINUOUS
10
158.25
20
-122
11
141.75
21
-122
0
LINE
8
0
6
CONTINUOUS
10
138.75
20
-125
11
138.75
21
-137
0
LINE
8
0
6
CONTINUOUS
10
141.75
20
-121
11
158.25
21
-121
0
LINE
8
0
6
CONTINUOUS
10
161.25
20
-118
11
161.25
21
-106
0
LINE
8
0
6
CONTINUOUS
10
158.25
20
-103
11
141.75
21
-103
0
LINE
8
0
6
CONTINUOUS
10
138.75
20
-106
11
138.75
21
-118
0
LINE
8
0
6
CONTINUOUS
10
141.75
20
-102
11
158.25
21
-102
0
LINE
8
0
6
CONTINUOUS
10
161.25
20
-99
11
161.25
21
-87
0
LINE
8
0
6
CONTINUOUS
10
158.25
20
-84
11
141.75
21
-84
0
LINE
8
0
6
CONTINUOUS
10
138.75
20
-87
11
138.75
21
-99
0
LINE
8
0
6
CONTINUOUS
10
141.75
20
-83
11
158.25
21
-83
0
LINE
8
0
6
CONTINUOUS
10
161.25
20
-80
11
161.25
21
-68
0
LINE
8
0
6
CONTINUOUS
10
158.25
20
-65
11
141.75
21
-65
0
LINE
8
0
6
CONTINUOUS
10
138.75
20
-68
11
138.75
21
-80
0
LINE
8
0
6
CONTINUOUS
10
227.5767406
20
-154.1830754
11
243.5145167
21
-158.4535896
0
LINE
8
0
6
CONTINUOUS
10
247.1887513
20
-156.3322691
11
250.2945799
21
-144.7411592
0
LINE
8
0
6
CONTINUOUS
10
248.1732594
20
-141.0669246
11
232.2354833
21
-136.7964104
0
LINE
8
0
6
CONTINUOUS
10
228.5612487
20
-138.9177309
11
225.4554201
21
-150.5088408
0
ARC
8
0
6
CONTINUOUS
10
244.2909738
20
-155.5558121
40
3
50
255.0000021
51
345.0000021
0
ARC
8
0
6
CONTINUOUS
10
247.3968024
20
-143.9647022
40
3
50
345.0000021
51
75.0000021
0
ARC
8
0
6
CONTINUOUS
10
231.4590262
20
-139.6941879
40
3
50
75.0000021
51
165.0000021
0
ARC
8
0
6
CONTINUOUS
10
228.3531976
20
-151.2852978
40
3
50
165.0000021
51
255.0000021
0
ARC
8
0
6
CONTINUOUS
10
158.25
20
-137
40
3
50
270
51
0
0
ARC
8
0
6
CONTINUOUS
10
158.25
20
-125
40
3
50
0
51
90
0
ARC
8
0
6
CONTINUOUS
10
141.75
20
-125
40
3
50
90
51
180
0
ARC
8
0
6
CONTINUOUS
10
141.75
20
-137
40
3
50
180
51
270
0
ARC
8
0
6
CONTINUOUS
10
158.25
20
-118
40
3
50
270
51
0
0
ARC
8
0
6
CONTINUOUS
10
158.25
20
-106
40
3
50
0
51
90
0
ARC
8
0
6
CONTINUOUS
10
141.75
20
-106
40
3
50
90
51
180
0
ARC
8
0
6
CONTINUOUS
10
141.75
20
-118
40
3
50
180
51
270
0
ARC
8
0
6
CONTINUOUS
10
158.25
20
-99
40
3
50
270
51
0
0
ARC
8
0
6
CONTINUOUS
10
158.25
20
-87
40
3
50
0
51
90
0
ARC
8
0
6
CONTINUOUS
10
141.75
20
-87
40
3
50
90
51
180
0
ARC
8
0
6
CONTINUOUS
10
141.75
20
-99
40
3
50
180
51
270
0
ARC
8
0
6
CONTINUOUS
10
158.25
20
-80
40
3
50
270
51
0
0
ARC
8
0
6
CONTINUOUS
10
158.25
20
-68
40
3
50
0
51
90
0
ARC
8
0
6
CONTINUOUS
10
141.75
20
-68
40
3
50
90
51
180
0
ARC
8
0
6
CONTINUOUS
10
141.75
20
-80
40
3
50
180
51
270
0
LINE
8
0
6
CONTINUOUS
10
260.375
20
-118.375
11
272.375
21
-118.375
0
LINE
8
0
6
CONTINUOUS
10
275.375
20
-115.375
11
275.375
21
-94.375
0
LINE
8
0
6
CONTINUOUS
10
272.375
20
-91.375
11
260.375
21
-91.375
0
LINE
8
0
6
CONTINUOUS
10
257.375
20
-94.375
11
257.375
21
-115.375
0
LINE
8
0
6
CONTINUOUS
10
258.597566
20
-146.2374615
11
268.9898708
21
-152.2374615
0
LINE
8
0
6
CONTINUOUS
10
273.087947
20
-151.1393853
11
283.587947
21
-132.9528517
0
LINE
8
0
6
CONTINUOUS
10
282.4898708
20
-128.8547755
11
272.097566
21
-122.8547755
0
LINE
8
0
6
CONTINUOUS
10
267.9994898
20
-123.9528517
11
257.4994898
21
-142.1393853
0
LINE
8
0
6
CONTINUOUS
10
275.0520487
20
-155.7374615
11
285.4443535
21
-161.7374615
0
LINE
8
0
6
CONTINUOUS
10
289.5424297
20
-160.6393853
11
300.0424297
21
-142.4528517
0
LINE
8
0
6
CONTINUOUS
10
298.9443535
20
-138.3547755
11
288.5520487
21
-132.3547755
0
LINE
8
0
6
CONTINUOUS
10
284.4539725
20
-133.4528517
11
273.9539725
21
-151.6393853
0
ARC
8
0
6
CONTINUOUS
10
270.4898708
20
-149.6393853
40
3
50
239.9999999
51
329.9999999
0
ARC
8
0
6
CONTINUOUS
10
280.9898708
20
-131.4528517
40
3
50
329.9999999
51
59.9999999
0
ARC
8
0
6
CONTINUOUS
10
270.597566
20
-125.4528517
40
3
50
59.9999999
51
149.9999999
0
ARC
8
0
6
CONTINUOUS
10
260.097566
20
-143.6393853
40
3
50
149.9999999
51
239.9999999
0
ARC
8
0
6
CONTINUOUS
10
286.9443535
20
-159.1393853
40
3
50
239.9999999
51
329.9999999
0
ARC
8
0
6
CONTINUOUS
10
297.4443535
20
-140.9528517
40
3
50
329.9999999
51
59.9999999
0
ARC
8
0
6
CONTINUOUS
10
287.0520487
20
-134.9528517
40
3
50
59.9999999
51
149.9999999
0
ARC
8
0
6
CONTINUOUS
10
276.5520487
20
-153.1393853
40
3
50
149.9999999
51
239.9999999
0
ARC
8
0
6
CONTINUOUS
10
272.375
20
-115.375
40
3
50
270
51
0
0
ARC
8
0
6
CONTINUOUS
10
272.375
20
-94.375
40
3
50
0
51
90
0
ARC
8
0
6
CONTINUOUS
10
260.375
20
-94.375
40
3
50
90
51
180
0
ARC
8
0
6
CONTINUOUS
10
260.375
20
-115.375
40
3
50
180
51
270
0
ENDSEC
0
EOF