0
SECTION
2
HEADER
9
$INSUNITS
70
4
0
ENDSEC
0
SECTION
2
TABLES
0
TABLE
2
LTYPE
0
LTYPE
72
65
70
0
2
CONTINUOUS
3
______
73
0
40
0
0
LTYPE
72
65
70
0
2
DASHED
3
_ _ _ 
73
2
40
7.5
49
5
49
-2.5
0
LTYPE
72
65
70
0
2
DOTTED
3
. . . 
73
2
40
1.5
49
0.5
49
-1
0
ENDTAB
0
TABLE
2
LAYER
0
ENDTAB
0
ENDSEC
0
SECTION
2
ENTITIES
0
LINE
8
0
6
CONTINUOUS
10
278.585
20
-104.625
11
294.365
21
-104.625
0
LINE
8
0
6
CONTINUOUS
10
295.365
20
-103.625
11
295.365
21
-72.625
0
LINE
8
0
6
CONTINUOUS
10
294.365
20
-71.625
11
278.585
21
-71.625
0
LINE
8
0
6
CONTINUOUS
10
277.585
20
-72.625
11
277.585
21
-103.625
0
ARC
8
0
6
CONTINUOUS
10
294.365
20
-103.625
40
1
50
270
51
0
0
ARC
8
0
6
CONTINUOUS
10
294.365
20
-72.625
40
1
50
0
51
90
0
ARC
8
0
6
CONTINUOUS
10
278.585
20
-72.625
40
1
50
90
51
180
0
ARC
8
0
6
CONTINUOUS
10
278.585
20
-103.625
40
1
50
180
51
270
0
LINE
8
0
6
CONTINUOUS
10
282.105
20
-78.275
11
290.845
21
-78.275
0
LINE
8
0
6
CONTINUOUS
10
290.945
20
-78.175
11
290.945
21
-71.025
0
LINE
8
0
6
CONTINUOUS
10
290.845
20
-70.925
11
282.105
21
-70.925
0
LINE
8
0
6
CONTINUOUS
10
282.005
20
-71.025
11
282.005
21
-78.175
0
ARC
8
0
6
CONTINUOUS
10
290.845
20
-78.175
40
0.1
50
270
51
0
0
ARC
8
0
6
CONTINUOUS
10
290.845
20
-71.025
40
0.1
50
0
51
90
0
ARC
8
0
6
CONTINUOUS
10
282.105
20
-71.025
40
0.1
50
90
51
180
0
ARC
8
0
6
CONTINUOUS
10
282.105
20
-78.175
40
0.1
50
180
51
270
0
ENDSEC
0
EOF