0
SECTION
2
HEADER
9
$INSUNITS
70
4
0
ENDSEC
0
SECTION
2
TABLES
0
TABLE
2
LTYPE
0
LTYPE
72
65
70
0
2
CONTINUOUS
3
______
73
0
40
0
0
LTYPE
72
65
70
0
2
DASHED
3
_ _ _ 
73
2
40
7.5
49
5
49
-2.5
0
LTYPE
72
65
70
0
2
DOTTED
3
. . . 
73
2
40
1.5
49
0.5
49
-1
0
ENDTAB
0
TABLE
2
LAYER
0
ENDTAB
0
ENDSEC
0
SECTION
2
ENTITIES
0
LINE
8
0
6
CONTINUOUS
10
245.6914771
20
-161.5914632
11
262.1459597
21
-171.0914632
0
LINE
8
0
6
CONTINUOUS
10
255.1914771
20
-145.1369806
11
247.0632391
21
-159.2155017
0
LINE
8
0
6
CONTINUOUS
10
246.7099375
20
-159.8274381
11
245.6914771
21
-161.5914632
0
LINE
8
0
6
CONTINUOUS
10
262.1459598
20
-171.0914632
11
278.6004424
21
-180.5914632
0
LINE
8
0
6
CONTINUOUS
10
278.6004424
20
-180.5914632
11
288.1004424
21
-164.1369806
0
LINE
8
0
6
CONTINUOUS
10
223.9458499
20
-153.7278192
11
246.7099375
21
-159.8274381
0
LINE
8
0
6
CONTINUOUS
10
247.0632391
20
-159.2155017
11
251.8041501
21
-141.5221808
0
LINE
8
0
6
CONTINUOUS
10
251.8041501
20
-141.5221808
11
228.8634117
21
-135.3752285
0
LINE
8
0
6
CONTINUOUS
10
228.8634117
20
-135.3752285
11
223.9458499
21
-153.7278192
0
LINE
8
0
6
CONTINUOUS
10
285.8959597
20
-129.9552565
11
269.4414771
21
-120.4552565
0
LINE
8
0
6
CONTINUOUS
10
269.4414771
20
-120.4552565
11
255.1914771
21
-145.1369805
0
LINE
8
0
6
CONTINUOUS
10
288.1004424
20
-164.1369805
11
302.3504424
21
-139.4552565
0
LINE
8
0
6
CONTINUOUS
10
302.3504424
20
-139.4552565
11
285.8959598
21
-129.9552565
0
ENDSEC
0
EOF