0
SECTION
2
HEADER
9
$INSUNITS
70
4
0
ENDSEC
0
SECTION
2
TABLES
0
TABLE
2
LTYPE
0
LTYPE
72
65
70
0
2
CONTINUOUS
3
______
73
0
40
0
0
LTYPE
72
65
70
0
2
DASHED
3
_ _ _ 
73
2
40
7.5
49
5
49
-2.5
0
LTYPE
72
65
70
0
2
DOTTED
3
. . . 
73
2
40
1.5
49
0.5
49
-1
0
ENDTAB
0
TABLE
2
LAYER
0
ENDTAB
0
ENDSEC
0
SECTION
2
ENTITIES
0
LINE
8
0
6
CONTINUOUS
10
138.125
20
-140.5
11
180.875
21
-140.5
0
LINE
8
0
6
CONTINUOUS
10
138.125
20
-64.5
11
180.875
21
-64.5
0
LINE
8
0
6
CONTINUOUS
10
180.875
20
-154.75
11
199.875
21
-154.75
0
LINE
8
0
6
CONTINUOUS
10
180.875
20
-140.5
11
180.875
21
-154.75
0
LINE
8
0
6
CONTINUOUS
10
199.875
20
-59.75
11
180.875
21
-59.75
0
LINE
8
0
6
CONTINUOUS
10
180.875
20
-59.75
11
180.875
21
-64.5
0
LINE
8
0
6
CONTINUOUS
10
218.875
20
-59.75
11
218.875
21
-57.375
0
LINE
8
0
6
CONTINUOUS
10
218.875
20
-57.375
11
199.875
21
-57.375
0
LINE
8
0
6
CONTINUOUS
10
199.875
20
-57.375
11
199.875
21
-59.75
0
LINE
8
0
6
CONTINUOUS
10
237.875
20
-64.5
11
237.875
21
-59.75
0
LINE
8
0
6
CONTINUOUS
10
237.875
20
-59.75
11
218.875
21
-59.75
0
LINE
8
0
6
CONTINUOUS
10
237.875
20
-64.5
11
295.475
21
-64.5
0
LINE
8
0
6
CONTINUOUS
10
138.125
20
-140.5
11
138.125
21
-64.5
0
LINE
8
0
6
CONTINUOUS
10
245.6914771
20
-163.9664632
11
278.6004424
21
-182.9664632
0
LINE
8
0
6
CONTINUOUS
10
278.6004424
20
-182.9664632
11
302.3504424
21
-141.8302565
0
LINE
8
0
6
CONTINUOUS
10
223.9458499
20
-156.1028192
11
199.875
21
-154.75
0
LINE
8
0
6
CONTINUOUS
10
295.475
20
-64.5
11
302.3504424
21
-141.8302565
0
LINE
8
0
6
CONTINUOUS
10
245.6914771
20
-163.9664632
11
223.9458499
21
-156.1028192
0
ENDSEC
0
EOF