0
SECTION
2
HEADER
9
$INSUNITS
70
4
0
ENDSEC
0
SECTION
2
TABLES
0
TABLE
2
LTYPE
0
LTYPE
72
65
70
0
2
CONTINUOUS
3
______
73
0
40
0
0
LTYPE
72
65
70
0
2
DASHED
3
_ _ _ 
73
2
40
7.5
49
5
49
-2.5
0
LTYPE
72
65
70
0
2
DOTTED
3
. . . 
73
2
40
1.5
49
0.5
49
-1
0
ENDTAB
0
TABLE
2
LAYER
0
ENDTAB
0
ENDSEC
0
SECTION
2
ENTITIES
0
LINE
8
0
6
CONTINUOUS
10
142.875
20
-159.5
11
180.875
21
-159.5
0
LINE
8
0
6
CONTINUOUS
10
142.875
20
-150.5
11
142.875
21
-159.5
0
LINE
8
0
6
CONTINUOUS
10
140.5
20
-150.5
11
140.5
21
-64.5
0
LINE
8
0
6
CONTINUOUS
10
142.875
20
-150.5
11
140.5
21
-150.5
0
LINE
8
0
6
CONTINUOUS
10
140.5
20
-64.5
11
180.875
21
-64.5
0
LINE
8
0
6
CONTINUOUS
10
180.875
20
-159.5
11
180.875
21
-154.75
0
LINE
8
0
6
CONTINUOUS
10
180.875
20
-154.75
11
199.875
21
-154.75
0
LINE
8
0
6
CONTINUOUS
10
199.875
20
-154.75
11
199.875
21
-152.375
0
LINE
8
0
6
CONTINUOUS
10
180.875
20
-59.75
11
199.875
21
-59.75
0
LINE
8
0
6
CONTINUOUS
10
180.875
20
-59.75
11
180.875
21
-64.5
0
LINE
8
0
6
CONTINUOUS
10
199.875
20
-152.375
11
218.875
21
-152.375
0
LINE
8
0
6
CONTINUOUS
10
218.875
20
-152.375
11
218.875
21
-143.375
0
LINE
8
0
6
CONTINUOUS
10
228.875
20
-135.75
11
228.875
21
-143.375
0
LINE
8
0
6
CONTINUOUS
10
228.875
20
-143.375
11
218.875
21
-143.375
0
LINE
8
0
6
CONTINUOUS
10
218.875
20
-59.75
11
218.875
21
-57.375
0
LINE
8
0
6
CONTINUOUS
10
218.875
20
-57.375
11
199.875
21
-57.375
0
LINE
8
0
6
CONTINUOUS
10
199.875
20
-57.375
11
199.875
21
-59.75
0
LINE
8
0
6
CONTINUOUS
10
228.875
20
-135.75
11
237.875
21
-135.75
0
LINE
8
0
6
CONTINUOUS
10
237.875
20
-62.125
11
237.875
21
-59.75
0
LINE
8
0
6
CONTINUOUS
10
218.875
20
-59.75
11
237.875
21
-59.75
0
LINE
8
0
6
CONTINUOUS
10
239.1256986
20
-138.125
11
256.875
21
-138.125
0
LINE
8
0
6
CONTINUOUS
10
256.875
20
-138.125
11
256.875
21
-114.375
0
LINE
8
0
6
CONTINUOUS
10
237.875
20
-135.75
11
237.875
21
-137.7898763
0
LINE
8
0
6
CONTINUOUS
10
256.875
20
-71.125
11
266.875
21
-71.125
0
LINE
8
0
6
CONTINUOUS
10
266.875
20
-71.125
11
266.875
21
-71.625
0
LINE
8
0
6
CONTINUOUS
10
256.875
20
-71.125
11
256.875
21
-62.125
0
LINE
8
0
6
CONTINUOUS
10
237.875
20
-62.125
11
256.875
21
-62.125
0
LINE
8
0
6
CONTINUOUS
10
256.875
20
-114.375
11
275.875
21
-114.375
0
LINE
8
0
6
CONTINUOUS
10
275.875
20
-114.375
11
275.875
21
-71.625
0
LINE
8
0
6
CONTINUOUS
10
275.875
20
-71.625
11
266.875
21
-71.625
0
LINE
8
0
6
CONTINUOUS
10
226.2399237
20
-154.3425144
11
246.7099375
21
-159.8274381
0
LINE
8
0
6
CONTINUOUS
10
239.1256986
20
-138.125
11
256.5450612
21
-142.7925041
0
LINE
8
0
6
CONTINUOUS
10
237.875
20
-137.7898763
11
231.1574856
21
-135.9899237
0
LINE
8
0
6
CONTINUOUS
10
231.1574856
20
-135.9899237
11
226.2399237
21
-154.3425144
0
LINE
8
0
6
CONTINUOUS
10
245.6914771
20
-161.5914632
11
278.6004424
21
-180.5914632
0
LINE
8
0
6
CONTINUOUS
10
246.7099375
20
-159.8274381
11
245.6914771
21
-161.5914632
0
LINE
8
0
6
CONTINUOUS
10
256.5450612
20
-142.7925041
11
267.0664771
21
-124.5688772
0
LINE
8
0
6
CONTINUOUS
10
267.0664771
20
-124.5688772
11
283.5209597
21
-134.0688772
0
LINE
8
0
6
CONTINUOUS
10
278.6004424
20
-180.5914632
11
299.9754424
21
-143.5688772
0
LINE
8
0
6
CONTINUOUS
10
283.5209598
20
-134.0688772
11
299.9754424
21
-143.5688772
0
LINE
8
0
6
CONTINUOUS
10
295.475
20
-109.625
11
295.475
21
-71.625
0
LINE
8
0
6
CONTINUOUS
10
295.475
20
-71.625
11
277.475
21
-71.625
0
LINE
8
0
6
CONTINUOUS
10
277.475
20
-109.625
11
277.475
21
-71.625
0
LINE
8
0
6
CONTINUOUS
10
277.475
20
-109.625
11
295.475
21
-109.625
0
ENDSEC
0
EOF