0
SECTION
2
HEADER
9
$INSUNITS
70
4
0
ENDSEC
0
SECTION
2
TABLES
0
TABLE
2
LTYPE
0
LTYPE
72
65
70
0
2
CONTINUOUS
3
______
73
0
40
0
0
LTYPE
72
65
70
0
2
DASHED
3
_ _ _ 
73
2
40
7.5
49
5
49
-2.5
0
LTYPE
72
65
70
0
2
DOTTED
3
. . . 
73
2
40
1.5
49
0.5
49
-1
0
ENDTAB
0
TABLE
2
LAYER
0
ENDTAB
0
ENDSEC
0
SECTION
2
ENTITIES
0
LINE
8
0
6
CONTINUOUS
10
140.5
20
-140.5
11
170.875
21
-140.5
0
LINE
8
0
6
CONTINUOUS
10
140.5
20
-140.5
11
140.5
21
-64.5
0
LINE
8
0
6
CONTINUOUS
10
140.5
20
-64.5
11
180.875
21
-64.5
0
LINE
8
0
6
CONTINUOUS
10
180.875
20
-154.75
11
199.875
21
-154.75
0
LINE
8
0
6
CONTINUOUS
10
199.875
20
-154.75
11
199.875
21
-152.375
0
LINE
8
0
6
CONTINUOUS
10
180.875
20
-145.75
11
180.875
21
-154.75
0
LINE
8
0
6
CONTINUOUS
10
180.875
20
-145.75
11
170.875
21
-145.75
0
LINE
8
0
6
CONTINUOUS
10
170.875
20
-145.75
11
170.875
21
-140.5
0
LINE
8
0
6
CONTINUOUS
10
180.875
20
-59.75
11
199.875
21
-59.75
0
LINE
8
0
6
CONTINUOUS
10
180.875
20
-59.75
11
180.875
21
-64.5
0
LINE
8
0
6
CONTINUOUS
10
199.875
20
-152.375
11
218.875
21
-152.375
0
LINE
8
0
6
CONTINUOUS
10
218.875
20
-152.375
11
218.875
21
-143.375
0
LINE
8
0
6
CONTINUOUS
10
228.875
20
-135.75
11
228.875
21
-143.375
0
LINE
8
0
6
CONTINUOUS
10
228.875
20
-143.375
11
218.875
21
-143.375
0
LINE
8
0
6
CONTINUOUS
10
218.875
20
-59.75
11
218.875
21
-57.375
0
LINE
8
0
6
CONTINUOUS
10
218.875
20
-57.375
11
199.875
21
-57.375
0
LINE
8
0
6
CONTINUOUS
10
199.875
20
-57.375
11
199.875
21
-59.75
0
LINE
8
0
6
CONTINUOUS
10
228.875
20
-135.75
11
237.875
21
-135.75
0
LINE
8
0
6
CONTINUOUS
10
237.875
20
-64.5
11
237.875
21
-59.75
0
LINE
8
0
6
CONTINUOUS
10
218.875
20
-59.75
11
237.875
21
-59.75
0
LINE
8
0
6
CONTINUOUS
10
239.1256986
20
-140.5
11
256.875
21
-140.5
0
LINE
8
0
6
CONTINUOUS
10
256.875
20
-140.5
11
256.875
21
-116.75
0
LINE
8
0
6
CONTINUOUS
10
237.875
20
-135.75
11
237.875
21
-140.1648763
0
LINE
8
0
6
CONTINUOUS
10
256.875
20
-73.5
11
266.875
21
-73.5
0
LINE
8
0
6
CONTINUOUS
10
266.875
20
-73.5
11
266.875
21
-74
0
LINE
8
0
6
CONTINUOUS
10
256.875
20
-73.5
11
256.875
21
-64.5
0
LINE
8
0
6
CONTINUOUS
10
237.875
20
-64.5
11
256.875
21
-64.5
0
LINE
8
0
6
CONTINUOUS
10
256.875
20
-116.75
11
275.875
21
-116.75
0
LINE
8
0
6
CONTINUOUS
10
275.875
20
-116.75
11
275.875
21
-74
0
LINE
8
0
6
CONTINUOUS
10
275.875
20
-74
11
266.875
21
-74
0
LINE
8
0
6
CONTINUOUS
10
226.2399237
20
-156.7175144
11
246.7099375
21
-162.2024381
0
LINE
8
0
6
CONTINUOUS
10
239.1256986
20
-140.5
11
256.5450612
21
-145.1675041
0
LINE
8
0
6
CONTINUOUS
10
237.875
20
-140.1648763
11
231.1574856
21
-138.3649237
0
LINE
8
0
6
CONTINUOUS
10
231.1574856
20
-138.3649237
11
226.2399237
21
-156.7175144
0
LINE
8
0
6
CONTINUOUS
10
245.6914771
20
-163.9664632
11
278.6004424
21
-182.9664632
0
LINE
8
0
6
CONTINUOUS
10
246.7099375
20
-162.2024381
11
245.6914771
21
-163.9664632
0
LINE
8
0
6
CONTINUOUS
10
256.5450612
20
-145.1675041
11
267.0664771
21
-126.9438772
0
LINE
8
0
6
CONTINUOUS
10
267.0664771
20
-126.9438772
11
283.5209597
21
-136.4438772
0
LINE
8
0
6
CONTINUOUS
10
278.6004424
20
-182.9664632
11
299.9754424
21
-145.9438772
0
LINE
8
0
6
CONTINUOUS
10
283.5209598
20
-136.4438772
11
299.9754424
21
-145.9438772
0
LINE
8
0
6
CONTINUOUS
10
295.475
20
-102.5
11
295.475
21
-64.5
0
LINE
8
0
6
CONTINUOUS
10
295.475
20
-64.5
11
277.475
21
-64.5
0
LINE
8
0
6
CONTINUOUS
10
277.475
20
-102.5
11
277.475
21
-64.5
0
LINE
8
0
6
CONTINUOUS
10
277.475
20
-102.5
11
295.475
21
-102.5
0
ENDSEC
0
EOF