0
SECTION
2
HEADER
9
$INSUNITS
70
4
0
ENDSEC
0
SECTION
2
TABLES
0
TABLE
2
LTYPE
0
LTYPE
72
65
70
0
2
CONTINUOUS
3
______
73
0
40
0
0
LTYPE
72
65
70
0
2
DASHED
3
_ _ _ 
73
2
40
7.5
49
5
49
-2.5
0
LTYPE
72
65
70
0
2
DOTTED
3
. . . 
73
2
40
1.5
49
0.5
49
-1
0
ENDTAB
0
TABLE
2
LAYER
0
ENDTAB
0
ENDSEC
0
SECTION
2
ENTITIES
0
LINE
8
0
6
CONTINUOUS
10
138.125
20
-140.5
11
180.875
21
-140.5
0
LINE
8
0
6
CONTINUOUS
10
138.125
20
-64.5
11
148.1875
21
-64.5
0
LINE
8
0
6
CONTINUOUS
10
173.1875
20
-64.5
11
180.875
21
-64.5
0
LINE
8
0
6
CONTINUOUS
10
180.875
20
-154.75
11
196.875
21
-154.75
0
LINE
8
0
6
CONTINUOUS
10
199.875
20
-154.75
11
199.875
21
-152.375
0
LINE
8
0
6
CONTINUOUS
10
180.875
20
-140.5
11
180.875
21
-154.75
0
LINE
8
0
6
CONTINUOUS
10
199.875
20
-59.75
11
180.875
21
-59.75
0
LINE
8
0
6
CONTINUOUS
10
180.875
20
-59.75
11
180.875
21
-64.5
0
LINE
8
0
6
CONTINUOUS
10
199.875
20
-152.375
11
218.875
21
-152.375
0
LINE
8
0
6
CONTINUOUS
10
218.875
20
-152.375
11
218.875
21
-135.75
0
LINE
8
0
6
CONTINUOUS
10
218.875
20
-59.75
11
218.875
21
-57.375
0
LINE
8
0
6
CONTINUOUS
10
218.875
20
-57.375
11
214.375
21
-57.375
0
LINE
8
0
6
CONTINUOUS
10
204.375
20
-57.375
11
199.875
21
-57.375
0
LINE
8
0
6
CONTINUOUS
10
199.875
20
-57.375
11
199.875
21
-59.75
0
LINE
8
0
6
CONTINUOUS
10
218.875
20
-135.75
11
237.875
21
-135.75
0
LINE
8
0
6
CONTINUOUS
10
237.875
20
-64.5
11
237.875
21
-59.75
0
LINE
8
0
6
CONTINUOUS
10
237.875
20
-59.75
11
218.875
21
-59.75
0
LINE
8
0
6
CONTINUOUS
10
239.1256987
20
-140.5
11
256.875
21
-140.5
0
LINE
8
0
6
CONTINUOUS
10
256.875
20
-140.5
11
256.875
21
-133.5
0
LINE
8
0
6
CONTINUOUS
10
237.875
20
-135.75
11
237.875
21
-140.1648763
0
LINE
8
0
6
CONTINUOUS
10
252.375
20
-64.5
11
295.475
21
-64.5
0
LINE
8
0
6
CONTINUOUS
10
242.375
20
-64.5
11
237.875
21
-64.5
0
LINE
8
0
6
CONTINUOUS
10
138.125
20
-140.5
11
138.125
21
-130
0
LINE
8
0
6
CONTINUOUS
10
138.125
20
-75
11
138.125
21
-64.5
0
LINE
8
0
6
CONTINUOUS
10
245.6914771
20
-163.9664632
11
251.3206422
21
-167.2164632
0
LINE
8
0
6
CONTINUOUS
10
272.9712772
20
-179.7164632
11
278.6004424
21
-182.9664632
0
LINE
8
0
6
CONTINUOUS
10
246.7099375
20
-162.2024381
11
245.6914771
21
-163.9664632
0
LINE
8
0
6
CONTINUOUS
10
256.5450612
20
-145.1675041
11
263.2812978
21
-133.5
0
LINE
8
0
6
CONTINUOUS
10
278.6004424
20
-182.9664632
11
283.0379424
21
-175.2804877
0
LINE
8
0
6
CONTINUOUS
10
295.5379424
20
-153.6298527
11
302.3504424
21
-141.8302565
0
LINE
8
0
6
CONTINUOUS
10
223.9458499
20
-156.1028192
11
246.7099375
21
-162.2024381
0
LINE
8
0
6
CONTINUOUS
10
228.8634117
20
-137.7502285
11
237.875
21
-140.1648763
0
LINE
8
0
6
CONTINUOUS
10
239.1256987
20
-140.5
11
256.5450612
21
-145.1675041
0
LINE
8
0
6
CONTINUOUS
10
228.8634117
20
-137.7502285
11
223.9458499
21
-156.1028192
0
LINE
8
0
6
CONTINUOUS
10
287.922015
20
-133.5
11
302.3504424
21
-141.8302565
0
LINE
8
0
6
CONTINUOUS
10
295.475
20
-133.5
11
295.475
21
-117.5
0
LINE
8
0
6
CONTINUOUS
10
295.475
20
-77.5
11
295.475
21
-64.5
0
LINE
8
0
6
CONTINUOUS
10
256.875
20
-133.5
11
263.2812978
21
-133.5
0
LINE
8
0
6
CONTINUOUS
10
287.922015
20
-133.5
11
295.475
21
-133.5
0
LINE
8
0
6
CONTINUOUS
10
134.125
20
-130
11
138.125
21
-130
0
LINE
8
0
6
CONTINUOUS
10
138.125
20
-75
11
134.125
21
-75
0
LINE
8
0
6
CONTINUOUS
10
134.125
20
-75
11
134.125
21
-130
0
LINE
8
0
6
CONTINUOUS
10
295.475
20
-117.5
11
299.475
21
-117.5
0
LINE
8
0
6
CONTINUOUS
10
299.475
20
-117.5
11
299.475
21
-77.5
0
LINE
8
0
6
CONTINUOUS
10
299.475
20
-77.5
11
295.475
21
-77.5
0
LINE
8
0
6
CONTINUOUS
10
283.0379424
20
-175.2804877
11
286.502044
21
-177.2804877
0
LINE
8
0
6
CONTINUOUS
10
286.502044
20
-177.2804877
11
299.002044
21
-155.6298527
0
LINE
8
0
6
CONTINUOUS
10
299.002044
20
-155.6298527
11
295.5379424
21
-153.6298527
0
LINE
8
0
6
CONTINUOUS
10
173.1875
20
-64.5
11
173.1875
21
-60.5
0
LINE
8
0
6
CONTINUOUS
10
173.1875
20
-60.5
11
148.1875
21
-60.5
0
LINE
8
0
6
CONTINUOUS
10
148.1875
20
-60.5
11
148.1875
21
-64.5
0
LINE
8
0
6
CONTINUOUS
10
148.1875
20
-163.5
11
173.1875
21
-163.5
0
LINE
8
0
6
CONTINUOUS
10
173.1875
20
-163.5
11
173.1875
21
-159.5
0
LINE
8
0
6
CONTINUOUS
10
173.1875
20
-159.5
11
148.1875
21
-159.5
0
LINE
8
0
6
CONTINUOUS
10
148.1875
20
-159.5
11
148.1875
21
-163.5
0
LINE
8
0
6
CONTINUOUS
10
196.875
20
-158.75
11
221.875
21
-158.75
0
LINE
8
0
6
CONTINUOUS
10
221.875
20
-158.75
11
221.875
21
-154.75
0
LINE
8
0
6
CONTINUOUS
10
221.875
20
-154.75
11
199.875
21
-154.75
0
LINE
8
0
6
CONTINUOUS
10
196.875
20
-154.75
11
196.875
21
-158.75
0
LINE
8
0
6
CONTINUOUS
10
249.3206422
20
-170.6805648
11
270.9712772
21
-183.1805648
0
LINE
8
0
6
CONTINUOUS
10
270.9712772
20
-183.1805648
11
272.9712772
21
-179.7164632
0
LINE
8
0
6
CONTINUOUS
10
251.3206422
20
-167.2164632
11
249.3206422
21
-170.6805648
0
LINE
8
0
6
CONTINUOUS
10
214.375
20
-57.375
11
214.375
21
-53.375
0
LINE
8
0
6
CONTINUOUS
10
214.375
20
-53.375
11
204.375
21
-53.375
0
LINE
8
0
6
CONTINUOUS
10
204.375
20
-53.375
11
204.375
21
-57.375
0
LINE
8
0
6
CONTINUOUS
10
252.375
20
-64.5
11
252.375
21
-60.5
0
LINE
8
0
6
CONTINUOUS
10
252.375
20
-60.5
11
242.375
21
-60.5
0
LINE
8
0
6
CONTINUOUS
10
242.375
20
-60.5
11
242.375
21
-64.5
0
ENDSEC
0
EOF