0
SECTION
2
HEADER
9
$INSUNITS
70
4
0
ENDSEC
0
SECTION
2
TABLES
0
TABLE
2
LTYPE
0
LTYPE
72
65
70
0
2
CONTINUOUS
3
______
73
0
40
0
0
LTYPE
72
65
70
0
2
DASHED
3
_ _ _ 
73
2
40
7.5
49
5
49
-2.5
0
LTYPE
72
65
70
0
2
DOTTED
3
. . . 
73
2
40
1.5
49
0.5
49
-1
0
ENDTAB
0
TABLE
2
LAYER
0
ENDTAB
0
ENDSEC
0
SECTION
2
ENTITIES
0
LINE
8
0
6
CONTINUOUS
10
138.125
20
-140.5
11
180.875
21
-140.5
0
LINE
8
0
6
CONTINUOUS
10
138.125
20
-64.5
11
180.875
21
-64.5
0
LINE
8
0
6
CONTINUOUS
10
180.875
20
-154.75
11
199.875
21
-154.75
0
LINE
8
0
6
CONTINUOUS
10
180.875
20
-140.5
11
180.875
21
-154.75
0
LINE
8
0
6
CONTINUOUS
10
199.875
20
-59.75
11
180.875
21
-59.75
0
LINE
8
0
6
CONTINUOUS
10
180.875
20
-59.75
11
180.875
21
-64.5
0
LINE
8
0
6
CONTINUOUS
10
218.875
20
-59.75
11
218.875
21
-57.375
0
LINE
8
0
6
CONTINUOUS
10
218.875
20
-57.375
11
199.875
21
-57.375
0
LINE
8
0
6
CONTINUOUS
10
199.875
20
-57.375
11
199.875
21
-59.75
0
LINE
8
0
6
CONTINUOUS
10
237.875
20
-64.5
11
237.875
21
-59.75
0
LINE
8
0
6
CONTINUOUS
10
237.875
20
-59.75
11
218.875
21
-59.75
0
LINE
8
0
6
CONTINUOUS
10
237.875
20
-64.5
11
295.475
21
-64.5
0
LINE
8
0
6
CONTINUOUS
10
138.125
20
-140.5
11
138.125
21
-64.5
0
LINE
8
0
6
CONTINUOUS
10
245.6914771
20
-163.9664632
11
278.6004424
21
-182.9664632
0
LINE
8
0
6
CONTINUOUS
10
278.6004424
20
-182.9664632
11
302.3504424
21
-141.8302565
0
LINE
8
0
6
CONTINUOUS
10
223.9458499
20
-156.1028192
11
199.875
21
-154.75
0
LINE
8
0
6
CONTINUOUS
10
295.475
20
-64.5
11
302.3504424
21
-141.8302565
0
LINE
8
0
6
CONTINUOUS
10
245.6914771
20
-163.9664632
11
223.9458499
21
-156.1028192
0
LINE
8
0
6
CONTINUOUS
10
165.375
20
-140
11
177.375
21
-140
0
LINE
8
0
6
CONTINUOUS
10
180.375
20
-137
11
180.375
21
-125
0
LINE
8
0
6
CONTINUOUS
10
177.375
20
-122
11
165.375
21
-122
0
LINE
8
0
6
CONTINUOUS
10
162.375
20
-125
11
162.375
21
-137
0
LINE
8
0
6
CONTINUOUS
10
165.375
20
-121
11
177.375
21
-121
0
LINE
8
0
6
CONTINUOUS
10
180.375
20
-118
11
180.375
21
-106
0
LINE
8
0
6
CONTINUOUS
10
177.375
20
-103
11
165.375
21
-103
0
LINE
8
0
6
CONTINUOUS
10
162.375
20
-106
11
162.375
21
-118
0
LINE
8
0
6
CONTINUOUS
10
165.375
20
-102
11
177.375
21
-102
0
LINE
8
0
6
CONTINUOUS
10
180.375
20
-99
11
180.375
21
-87
0
LINE
8
0
6
CONTINUOUS
10
177.375
20
-84
11
165.375
21
-84
0
LINE
8
0
6
CONTINUOUS
10
162.375
20
-87
11
162.375
21
-99
0
LINE
8
0
6
CONTINUOUS
10
165.375
20
-83
11
177.375
21
-83
0
LINE
8
0
6
CONTINUOUS
10
180.375
20
-80
11
180.375
21
-68
0
LINE
8
0
6
CONTINUOUS
10
177.375
20
-65
11
165.375
21
-65
0
LINE
8
0
6
CONTINUOUS
10
162.375
20
-68
11
162.375
21
-80
0
LINE
8
0
6
CONTINUOUS
10
184.375
20
-154.25
11
196.375
21
-154.25
0
LINE
8
0
6
CONTINUOUS
10
199.375
20
-151.25
11
199.375
21
-139.25
0
LINE
8
0
6
CONTINUOUS
10
196.375
20
-136.25
11
184.375
21
-136.25
0
LINE
8
0
6
CONTINUOUS
10
181.375
20
-139.25
11
181.375
21
-151.25
0
LINE
8
0
6
CONTINUOUS
10
184.375
20
-135.25
11
196.375
21
-135.25
0
LINE
8
0
6
CONTINUOUS
10
199.375
20
-132.25
11
199.375
21
-120.25
0
LINE
8
0
6
CONTINUOUS
10
196.375
20
-117.25
11
184.375
21
-117.25
0
LINE
8
0
6
CONTINUOUS
10
181.375
20
-120.25
11
181.375
21
-132.25
0
LINE
8
0
6
CONTINUOUS
10
184.375
20
-116.25
11
196.375
21
-116.25
0
LINE
8
0
6
CONTINUOUS
10
199.375
20
-113.25
11
199.375
21
-101.25
0
LINE
8
0
6
CONTINUOUS
10
196.375
20
-98.25
11
184.375
21
-98.25
0
LINE
8
0
6
CONTINUOUS
10
181.375
20
-101.25
11
181.375
21
-113.25
0
LINE
8
0
6
CONTINUOUS
10
184.375
20
-97.25
11
196.375
21
-97.25
0
LINE
8
0
6
CONTINUOUS
10
199.375
20
-94.25
11
199.375
21
-82.25
0
LINE
8
0
6
CONTINUOUS
10
196.375
20
-79.25
11
184.375
21
-79.25
0
LINE
8
0
6
CONTINUOUS
10
181.375
20
-82.25
11
181.375
21
-94.25
0
LINE
8
0
6
CONTINUOUS
10
184.375
20
-78.25
11
196.375
21
-78.25
0
LINE
8
0
6
CONTINUOUS
10
199.375
20
-75.25
11
199.375
21
-63.25
0
LINE
8
0
6
CONTINUOUS
10
196.375
20
-60.25
11
184.375
21
-60.25
0
LINE
8
0
6
CONTINUOUS
10
181.375
20
-63.25
11
181.375
21
-75.25
0
LINE
8
0
6
CONTINUOUS
10
203.375
20
-151.875
11
215.375
21
-151.875
0
LINE
8
0
6
CONTINUOUS
10
218.375
20
-148.875
11
218.375
21
-136.875
0
LINE
8
0
6
CONTINUOUS
10
215.375
20
-133.875
11
203.375
21
-133.875
0
LINE
8
0
6
CONTINUOUS
10
200.375
20
-136.875
11
200.375
21
-148.875
0
LINE
8
0
6
CONTINUOUS
10
203.375
20
-132.875
11
215.375
21
-132.875
0
LINE
8
0
6
CONTINUOUS
10
218.375
20
-129.875
11
218.375
21
-117.875
0
LINE
8
0
6
CONTINUOUS
10
215.375
20
-114.875
11
203.375
21
-114.875
0
LINE
8
0
6
CONTINUOUS
10
200.375
20
-117.875
11
200.375
21
-129.875
0
LINE
8
0
6
CONTINUOUS
10
203.375
20
-113.875
11
215.375
21
-113.875
0
LINE
8
0
6
CONTINUOUS
10
218.375
20
-110.875
11
218.375
21
-98.875
0
LINE
8
0
6
CONTINUOUS
10
215.375
20
-95.875
11
203.375
21
-95.875
0
LINE
8
0
6
CONTINUOUS
10
200.375
20
-98.875
11
200.375
21
-110.875
0
LINE
8
0
6
CONTINUOUS
10
203.375
20
-94.875
11
215.375
21
-94.875
0
LINE
8
0
6
CONTINUOUS
10
218.375
20
-91.875
11
218.375
21
-79.875
0
LINE
8
0
6
CONTINUOUS
10
215.375
20
-76.875
11
203.375
21
-76.875
0
LINE
8
0
6
CONTINUOUS
10
200.375
20
-79.875
11
200.375
21
-91.875
0
LINE
8
0
6
CONTINUOUS
10
203.375
20
-75.875
11
215.375
21
-75.875
0
LINE
8
0
6
CONTINUOUS
10
218.375
20
-72.875
11
218.375
21
-60.875
0
LINE
8
0
6
CONTINUOUS
10
215.375
20
-57.875
11
203.375
21
-57.875
0
LINE
8
0
6
CONTINUOUS
10
200.375
20
-60.875
11
200.375
21
-72.875
0
LINE
8
0
6
CONTINUOUS
10
222.375
20
-135.25
11
234.375
21
-135.25
0
LINE
8
0
6
CONTINUOUS
10
237.375
20
-132.25
11
237.375
21
-120.25
0
LINE
8
0
6
CONTINUOUS
10
234.375
20
-117.25
11
222.375
21
-117.25
0
LINE
8
0
6
CONTINUOUS
10
219.375
20
-120.25
11
219.375
21
-132.25
0
LINE
8
0
6
CONTINUOUS
10
222.375
20
-116.25
11
234.375
21
-116.25
0
LINE
8
0
6
CONTINUOUS
10
237.375
20
-113.25
11
237.375
21
-101.25
0
LINE
8
0
6
CONTINUOUS
10
234.375
20
-98.25
11
222.375
21
-98.25
0
LINE
8
0
6
CONTINUOUS
10
219.375
20
-101.25
11
219.375
21
-113.25
0
LINE
8
0
6
CONTINUOUS
10
222.375
20
-97.25
11
234.375
21
-97.25
0
LINE
8
0
6
CONTINUOUS
10
237.375
20
-94.25
11
237.375
21
-82.25
0
LINE
8
0
6
CONTINUOUS
10
234.375
20
-79.25
11
222.375
21
-79.25
0
LINE
8
0
6
CONTINUOUS
10
219.375
20
-82.25
11
219.375
21
-94.25
0
LINE
8
0
6
CONTINUOUS
10
222.375
20
-78.25
11
234.375
21
-78.25
0
LINE
8
0
6
CONTINUOUS
10
237.375
20
-75.25
11
237.375
21
-63.25
0
LINE
8
0
6
CONTINUOUS
10
234.375
20
-60.25
11
222.375
21
-60.25
0
LINE
8
0
6
CONTINUOUS
10
219.375
20
-63.25
11
219.375
21
-75.25
0
LINE
8
0
6
CONTINUOUS
10
241.375
20
-140
11
253.375
21
-140
0
LINE
8
0
6
CONTINUOUS
10
256.375
20
-137
11
256.375
21
-125
0
LINE
8
0
6
CONTINUOUS
10
253.375
20
-122
11
241.375
21
-122
0
LINE
8
0
6
CONTINUOUS
10
238.375
20
-125
11
238.375
21
-137
0
LINE
8
0
6
CONTINUOUS
10
241.375
20
-121
11
253.375
21
-121
0
LINE
8
0
6
CONTINUOUS
10
256.375
20
-118
11
256.375
21
-106
0
LINE
8
0
6
CONTINUOUS
10
253.375
20
-103
11
241.375
21
-103
0
LINE
8
0
6
CONTINUOUS
10
238.375
20
-106
11
238.375
21
-118
0
LINE
8
0
6
CONTINUOUS
10
241.375
20
-102
11
253.375
21
-102
0
LINE
8
0
6
CONTINUOUS
10
256.375
20
-99
11
256.375
21
-87
0
LINE
8
0
6
CONTINUOUS
10
253.375
20
-84
11
241.375
21
-84
0
LINE
8
0
6
CONTINUOUS
10
238.375
20
-87
11
238.375
21
-99
0
LINE
8
0
6
CONTINUOUS
10
241.375
20
-83
11
253.375
21
-83
0
LINE
8
0
6
CONTINUOUS
10
256.375
20
-80
11
256.375
21
-68
0
LINE
8
0
6
CONTINUOUS
10
253.375
20
-65
11
241.375
21
-65
0
LINE
8
0
6
CONTINUOUS
10
238.375
20
-68
11
238.375
21
-80
0
LINE
8
0
6
CONTINUOUS
10
260.375
20
-92.5
11
272.375
21
-92.5
0
LINE
8
0
6
CONTINUOUS
10
275.375
20
-89.5
11
275.375
21
-77.5
0
LINE
8
0
6
CONTINUOUS
10
272.375
20
-74.5
11
260.375
21
-74.5
0
LINE
8
0
6
CONTINUOUS
10
257.375
20
-77.5
11
257.375
21
-89.5
0
LINE
8
0
6
CONTINUOUS
10
248.972566
20
-165.2834505
11
259.3648708
21
-171.2834505
0
LINE
8
0
6
CONTINUOUS
10
263.462947
20
-170.1853743
11
269.462947
21
-159.7930695
0
LINE
8
0
6
CONTINUOUS
10
268.3648708
20
-155.6949933
11
257.972566
21
-149.6949933
0
LINE
8
0
6
CONTINUOUS
10
253.8744898
20
-150.7930695
11
247.8744898
21
-161.1853743
0
LINE
8
0
6
CONTINUOUS
10
265.4270487
20
-174.7834505
11
275.8193535
21
-180.7834505
0
LINE
8
0
6
CONTINUOUS
10
279.9174297
20
-179.6853743
11
285.9174297
21
-169.2930695
0
LINE
8
0
6
CONTINUOUS
10
284.8193535
20
-165.1949933
11
274.4270487
21
-159.1949933
0
LINE
8
0
6
CONTINUOUS
10
270.3289725
20
-160.2930695
11
264.3289725
21
-170.6853743
0
ARC
8
0
6
CONTINUOUS
10
177.375
20
-137
40
3
50
270
51
0
0
ARC
8
0
6
CONTINUOUS
10
177.375
20
-125
40
3
50
0
51
90
0
ARC
8
0
6
CONTINUOUS
10
165.375
20
-125
40
3
50
90
51
180
0
ARC
8
0
6
CONTINUOUS
10
165.375
20
-137
40
3
50
180
51
270
0
ARC
8
0
6
CONTINUOUS
10
177.375
20
-118
40
3
50
270
51
0
0
ARC
8
0
6
CONTINUOUS
10
177.375
20
-106
40
3
50
0
51
90
0
ARC
8
0
6
CONTINUOUS
10
165.375
20
-106
40
3
50
90
51
180
0
ARC
8
0
6
CONTINUOUS
10
165.375
20
-118
40
3
50
180
51
270
0
ARC
8
0
6
CONTINUOUS
10
177.375
20
-99
40
3
50
270
51
0
0
ARC
8
0
6
CONTINUOUS
10
177.375
20
-87
40
3
50
0
51
90
0
ARC
8
0
6
CONTINUOUS
10
165.375
20
-87
40
3
50
90
51
180
0
ARC
8
0
6
CONTINUOUS
10
165.375
20
-99
40
3
50
180
51
270
0
ARC
8
0
6
CONTINUOUS
10
177.375
20
-80
40
3
50
270
51
0
0
ARC
8
0
6
CONTINUOUS
10
177.375
20
-68
40
3
50
0
51
90
0
ARC
8
0
6
CONTINUOUS
10
165.375
20
-68
40
3
50
90
51
180
0
ARC
8
0
6
CONTINUOUS
10
165.375
20
-80
40
3
50
180
51
270
0
ARC
8
0
6
CONTINUOUS
10
196.375
20
-151.25
40
3
50
270
51
0
0
ARC
8
0
6
CONTINUOUS
10
196.375
20
-139.25
40
3
50
0
51
90
0
ARC
8
0
6
CONTINUOUS
10
184.375
20
-139.25
40
3
50
90
51
180
0
ARC
8
0
6
CONTINUOUS
10
184.375
20
-151.25
40
3
50
180
51
270
0
ARC
8
0
6
CONTINUOUS
10
196.375
20
-132.25
40
3
50
270
51
0
0
ARC
8
0
6
CONTINUOUS
10
196.375
20
-120.25
40
3
50
0
51
90
0
ARC
8
0
6
CONTINUOUS
10
184.375
20
-120.25
40
3
50
90
51
180
0
ARC
8
0
6
CONTINUOUS
10
184.375
20
-132.25
40
3
50
180
51
270
0
ARC
8
0
6
CONTINUOUS
10
196.375
20
-113.25
40
3
50
270
51
0
0
ARC
8
0
6
CONTINUOUS
10
196.375
20
-101.25
40
3
50
0
51
90
0
ARC
8
0
6
CONTINUOUS
10
184.375
20
-101.25
40
3
50
90
51
180
0
ARC
8
0
6
CONTINUOUS
10
184.375
20
-113.25
40
3
50
180
51
270
0
ARC
8
0
6
CONTINUOUS
10
196.375
20
-94.25
40
3
50
270
51
0
0
ARC
8
0
6
CONTINUOUS
10
196.375
20
-82.25
40
3
50
0
51
90
0
ARC
8
0
6
CONTINUOUS
10
184.375
20
-82.25
40
3
50
90
51
180
0
ARC
8
0
6
CONTINUOUS
10
184.375
20
-94.25
40
3
50
180
51
270
0
ARC
8
0
6
CONTINUOUS
10
196.375
20
-75.25
40
3
50
270
51
0
0
ARC
8
0
6
CONTINUOUS
10
196.375
20
-63.25
40
3
50
0
51
90
0
ARC
8
0
6
CONTINUOUS
10
184.375
20
-63.25
40
3
50
90
51
180
0
ARC
8
0
6
CONTINUOUS
10
184.375
20
-75.25
40
3
50
180
51
270
0
ARC
8
0
6
CONTINUOUS
10
215.375
20
-148.875
40
3
50
270
51
0
0
ARC
8
0
6
CONTINUOUS
10
215.375
20
-136.875
40
3
50
0
51
90
0
ARC
8
0
6
CONTINUOUS
10
203.375
20
-136.875
40
3
50
90
51
180
0
ARC
8
0
6
CONTINUOUS
10
203.375
20
-148.875
40
3
50
180
51
270
0
ARC
8
0
6
CONTINUOUS
10
215.375
20
-129.875
40
3
50
270
51
0
0
ARC
8
0
6
CONTINUOUS
10
215.375
20
-117.875
40
3
50
0
51
90
0
ARC
8
0
6
CONTINUOUS
10
203.375
20
-117.875
40
3
50
90
51
180
0
ARC
8
0
6
CONTINUOUS
10
203.375
20
-129.875
40
3
50
180
51
270
0
ARC
8
0
6
CONTINUOUS
10
215.375
20
-110.875
40
3
50
270
51
0
0
ARC
8
0
6
CONTINUOUS
10
215.375
20
-98.875
40
3
50
0
51
90
0
ARC
8
0
6
CONTINUOUS
10
203.375
20
-98.875
40
3
50
90
51
180
0
ARC
8
0
6
CONTINUOUS
10
203.375
20
-110.875
40
3
50
180
51
270
0
ARC
8
0
6
CONTINUOUS
10
215.375
20
-91.875
40
3
50
270
51
0
0
ARC
8
0
6
CONTINUOUS
10
215.375
20
-79.875
40
3
50
0
51
90
0
ARC
8
0
6
CONTINUOUS
10
203.375
20
-79.875
40
3
50
90
51
180
0
ARC
8
0
6
CONTINUOUS
10
203.375
20
-91.875
40
3
50
180
51
270
0
ARC
8
0
6
CONTINUOUS
10
215.375
20
-72.875
40
3
50
270
51
0
0
ARC
8
0
6
CONTINUOUS
10
215.375
20
-60.875
40
3
50
0
51
90
0
ARC
8
0
6
CONTINUOUS
10
203.375
20
-60.875
40
3
50
90
51
180
0
ARC
8
0
6
CONTINUOUS
10
203.375
20
-72.875
40
3
50
180
51
270
0
ARC
8
0
6
CONTINUOUS
10
234.375
20
-132.25
40
3
50
270
51
0
0
ARC
8
0
6
CONTINUOUS
10
234.375
20
-120.25
40
3
50
0
51
90
0
ARC
8
0
6
CONTINUOUS
10
222.375
20
-120.25
40
3
50
90
51
180
0
ARC
8
0
6
CONTINUOUS
10
222.375
20
-132.25
40
3
50
180
51
270
0
ARC
8
0
6
CONTINUOUS
10
234.375
20
-113.25
40
3
50
270
51
0
0
ARC
8
0
6
CONTINUOUS
10
234.375
20
-101.25
40
3
50
0
51
90
0
ARC
8
0
6
CONTINUOUS
10
222.375
20
-101.25
40
3
50
90
51
180
0
ARC
8
0
6
CONTINUOUS
10
222.375
20
-113.25
40
3
50
180
51
270
0
ARC
8
0
6
CONTINUOUS
10
234.375
20
-94.25
40
3
50
270
51
0
0
ARC
8
0
6
CONTINUOUS
10
234.375
20
-82.25
40
3
50
0
51
90
0
ARC
8
0
6
CONTINUOUS
10
222.375
20
-82.25
40
3
50
90
51
180
0
ARC
8
0
6
CONTINUOUS
10
222.375
20
-94.25
40
3
50
180
51
270
0
ARC
8
0
6
CONTINUOUS
10
234.375
20
-75.25
40
3
50
270
51
0
0
ARC
8
0
6
CONTINUOUS
10
234.375
20
-63.25
40
3
50
0
51
90
0
ARC
8
0
6
CONTINUOUS
10
222.375
20
-63.25
40
3
50
90
51
180
0
ARC
8
0
6
CONTINUOUS
10
222.375
20
-75.25
40
3
50
180
51
270
0
ARC
8
0
6
CONTINUOUS
10
253.375
20
-137
40
3
50
270
51
0
0
ARC
8
0
6
CONTINUOUS
10
253.375
20
-125
40
3
50
0
51
90
0
ARC
8
0
6
CONTINUOUS
10
241.375
20
-125
40
3
50
90
51
180
0
ARC
8
0
6
CONTINUOUS
10
241.375
20
-137
40
3
50
180
51
270
0
ARC
8
0
6
CONTINUOUS
10
253.375
20
-118
40
3
50
270
51
0
0
ARC
8
0
6
CONTINUOUS
10
253.375
20
-106
40
3
50
0
51
90
0
ARC
8
0
6
CONTINUOUS
10
241.375
20
-106
40
3
50
90
51
180
0
ARC
8
0
6
CONTINUOUS
10
241.375
20
-118
40
3
50
180
51
270
0
ARC
8
0
6
CONTINUOUS
10
253.375
20
-99
40
3
50
270
51
0
0
ARC
8
0
6
CONTINUOUS
10
253.375
20
-87
40
3
50
0
51
90
0
ARC
8
0
6
CONTINUOUS
10
241.375
20
-87
40
3
50
90
51
180
0
ARC
8
0
6
CONTINUOUS
10
241.375
20
-99
40
3
50
180
51
270
0
ARC
8
0
6
CONTINUOUS
10
253.375
20
-80
40
3
50
270
51
0
0
ARC
8
0
6
CONTINUOUS
10
253.375
20
-68
40
3
50
0
51
90
0
ARC
8
0
6
CONTINUOUS
10
241.375
20
-68
40
3
50
90
51
180
0
ARC
8
0
6
CONTINUOUS
10
241.375
20
-80
40
3
50
180
51
270
0
ARC
8
0
6
CONTINUOUS
10
272.375
20
-89.5
40
3
50
270
51
0
0
ARC
8
0
6
CONTINUOUS
10
272.375
20
-77.5
40
3
50
0
51
90
0
ARC
8
0
6
CONTINUOUS
10
260.375
20
-77.5
40
3
50
90
51
180
0
ARC
8
0
6
CONTINUOUS
10
260.375
20
-89.5
40
3
50
180
51
270
0
ARC
8
0
6
CONTINUOUS
10
260.8648708
20
-168.6853743
40
3
50
239.9999999
51
329.9999999
0
ARC
8
0
6
CONTINUOUS
10
266.8648708
20
-158.2930695
40
3
50
329.9999999
51
59.9999999
0
ARC
8
0
6
CONTINUOUS
10
256.472566
20
-152.2930695
40
3
50
59.9999999
51
149.9999999
0
ARC
8
0
6
CONTINUOUS
10
250.472566
20
-162.6853743
40
3
50
149.9999999
51
239.9999999
0
ARC
8
0
6
CONTINUOUS
10
277.3193535
20
-178.1853743
40
3
50
239.9999999
51
329.9999999
0
ARC
8
0
6
CONTINUOUS
10
283.3193535
20
-167.7930695
40
3
50
329.9999999
51
59.9999999
0
ARC
8
0
6
CONTINUOUS
10
272.9270487
20
-161.7930695
40
3
50
59.9999999
51
149.9999999
0
ARC
8
0
6
CONTINUOUS
10
266.9270487
20
-172.1853743
40
3
50
149.9999999
51
239.9999999
0
LINE
8
0
6
CONTINUOUS
10
141.75
20
-140
11
158.25
21
-140
0
LINE
8
0
6
CONTINUOUS
10
161.25
20
-137
11
161.25
21
-125
0
LINE
8
0
6
CONTINUOUS
10
158.25
20
-122
11
141.75
21
-122
0
LINE
8
0
6
CONTINUOUS
10
138.75
20
-125
11
138.75
21
-137
0
LINE
8
0
6
CONTINUOUS
10
141.75
20
-121
11
158.25
21
-121
0
LINE
8
0
6
CONTINUOUS
10
161.25
20
-118
11
161.25
21
-106
0
LINE
8
0
6
CONTINUOUS
10
158.25
20
-103
11
141.75
21
-103
0
LINE
8
0
6
CONTINUOUS
10
138.75
20
-106
11
138.75
21
-118
0
LINE
8
0
6
CONTINUOUS
10
141.75
20
-102
11
158.25
21
-102
0
LINE
8
0
6
CONTINUOUS
10
161.25
20
-99
11
161.25
21
-87
0
LINE
8
0
6
CONTINUOUS
10
158.25
20
-84
11
141.75
21
-84
0
LINE
8
0
6
CONTINUOUS
10
138.75
20
-87
11
138.75
21
-99
0
LINE
8
0
6
CONTINUOUS
10
141.75
20
-83
11
158.25
21
-83
0
LINE
8
0
6
CONTINUOUS
10
161.25
20
-80
11
161.25
21
-68
0
LINE
8
0
6
CONTINUOUS
10
158.25
20
-65
11
141.75
21
-65
0
LINE
8
0
6
CONTINUOUS
10
138.75
20
-68
11
138.75
21
-80
0
LINE
8
0
6
CONTINUOUS
10
227.5767406
20
-156.5580754
11
243.5145167
21
-160.8285896
0
LINE
8
0
6
CONTINUOUS
10
247.1887513
20
-158.7072691
11
250.2945799
21
-147.1161592
0
LINE
8
0
6
CONTINUOUS
10
248.1732594
20
-143.4419246
11
232.2354833
21
-139.1714104
0
LINE
8
0
6
CONTINUOUS
10
228.5612487
20
-141.2927309
11
225.4554201
21
-152.8838408
0
ARC
8
0
6
CONTINUOUS
10
244.2909738
20
-157.9308121
40
3
50
255.0000021
51
345.0000021
0
ARC
8
0
6
CONTINUOUS
10
247.3968024
20
-146.3397022
40
3
50
345.0000021
51
75.0000021
0
ARC
8
0
6
CONTINUOUS
10
231.4590262
20
-142.0691879
40
3
50
75.0000021
51
165.0000021
0
ARC
8
0
6
CONTINUOUS
10
228.3531976
20
-153.6602978
40
3
50
165.0000021
51
255.0000021
0
ARC
8
0
6
CONTINUOUS
10
158.25
20
-137
40
3
50
270
51
0
0
ARC
8
0
6
CONTINUOUS
10
158.25
20
-125
40
3
50
0
51
90
0
ARC
8
0
6
CONTINUOUS
10
141.75
20
-125
40
3
50
90
51
180
0
ARC
8
0
6
CONTINUOUS
10
141.75
20
-137
40
3
50
180
51
270
0
ARC
8
0
6
CONTINUOUS
10
158.25
20
-118
40
3
50
270
51
0
0
ARC
8
0
6
CONTINUOUS
10
158.25
20
-106
40
3
50
0
51
90
0
ARC
8
0
6
CONTINUOUS
10
141.75
20
-106
40
3
50
90
51
180
0
ARC
8
0
6
CONTINUOUS
10
141.75
20
-118
40
3
50
180
51
270
0
ARC
8
0
6
CONTINUOUS
10
158.25
20
-99
40
3
50
270
51
0
0
ARC
8
0
6
CONTINUOUS
10
158.25
20
-87
40
3
50
0
51
90
0
ARC
8
0
6
CONTINUOUS
10
141.75
20
-87
40
3
50
90
51
180
0
ARC
8
0
6
CONTINUOUS
10
141.75
20
-99
40
3
50
180
51
270
0
ARC
8
0
6
CONTINUOUS
10
158.25
20
-80
40
3
50
270
51
0
0
ARC
8
0
6
CONTINUOUS
10
158.25
20
-68
40
3
50
0
51
90
0
ARC
8
0
6
CONTINUOUS
10
141.75
20
-68
40
3
50
90
51
180
0
ARC
8
0
6
CONTINUOUS
10
141.75
20
-80
40
3
50
180
51
270
0
LINE
8
0
6
CONTINUOUS
10
260.375
20
-120.75
11
272.375
21
-120.75
0
LINE
8
0
6
CONTINUOUS
10
275.375
20
-117.75
11
275.375
21
-96.75
0
LINE
8
0
6
CONTINUOUS
10
272.375
20
-93.75
11
260.375
21
-93.75
0
LINE
8
0
6
CONTINUOUS
10
257.375
20
-96.75
11
257.375
21
-117.75
0
LINE
8
0
6
CONTINUOUS
10
258.597566
20
-148.6124615
11
268.9898708
21
-154.6124615
0
LINE
8
0
6
CONTINUOUS
10
273.087947
20
-153.5143853
11
283.587947
21
-135.3278517
0
LINE
8
0
6
CONTINUOUS
10
282.4898708
20
-131.2297755
11
272.097566
21
-125.2297755
0
LINE
8
0
6
CONTINUOUS
10
267.9994898
20
-126.3278517
11
257.4994898
21
-144.5143853
0
LINE
8
0
6
CONTINUOUS
10
275.0520487
20
-158.1124615
11
285.4443535
21
-164.1124615
0
LINE
8
0
6
CONTINUOUS
10
289.5424297
20
-163.0143853
11
300.0424297
21
-144.8278517
0
LINE
8
0
6
CONTINUOUS
10
298.9443535
20
-140.7297755
11
288.5520487
21
-134.7297755
0
LINE
8
0
6
CONTINUOUS
10
284.4539725
20
-135.8278517
11
273.9539725
21
-154.0143853
0
ARC
8
0
6
CONTINUOUS
10
270.4898708
20
-152.0143853
40
3
50
239.9999999
51
329.9999999
0
ARC
8
0
6
CONTINUOUS
10
280.9898708
20
-133.8278517
40
3
50
329.9999999
51
59.9999999
0
ARC
8
0
6
CONTINUOUS
10
270.597566
20
-127.8278517
40
3
50
59.9999999
51
149.9999999
0
ARC
8
0
6
CONTINUOUS
10
260.097566
20
-146.0143853
40
3
50
149.9999999
51
239.9999999
0
ARC
8
0
6
CONTINUOUS
10
286.9443535
20
-161.5143853
40
3
50
239.9999999
51
329.9999999
0
ARC
8
0
6
CONTINUOUS
10
297.4443535
20
-143.3278517
40
3
50
329.9999999
51
59.9999999
0
ARC
8
0
6
CONTINUOUS
10
287.0520487
20
-137.3278517
40
3
50
59.9999999
51
149.9999999
0
ARC
8
0
6
CONTINUOUS
10
276.5520487
20
-155.5143853
40
3
50
149.9999999
51
239.9999999
0
ARC
8
0
6
CONTINUOUS
10
272.375
20
-117.75
40
3
50
270
51
0
0
ARC
8
0
6
CONTINUOUS
10
272.375
20
-96.75
40
3
50
0
51
90
0
ARC
8
0
6
CONTINUOUS
10
260.375
20
-96.75
40
3
50
90
51
180
0
ARC
8
0
6
CONTINUOUS
10
260.375
20
-117.75
40
3
50
180
51
270
0
LINE
8
0
6
CONTINUOUS
10
278.585
20
-97.5
11
294.365
21
-97.5
0
LINE
8
0
6
CONTINUOUS
10
295.365
20
-96.5
11
295.365
21
-65.5
0
LINE
8
0
6
CONTINUOUS
10
277.585
20
-65.5
11
277.585
21
-96.5
0
ARC
8
0
6
CONTINUOUS
10
294.365
20
-96.5
40
1
50
270
51
0
0
ARC
8
0
6
CONTINUOUS
10
294.365
20
-65.5
40
1
50
0
51
90
0
ARC
8
0
6
CONTINUOUS
10
278.585
20
-65.5
40
1
50
90
51
180
0
ARC
8
0
6
CONTINUOUS
10
278.585
20
-96.5
40
1
50
180
51
270
0
LINE
8
0
6
CONTINUOUS
10
282.105
20
-71.15
11
290.845
21
-71.15
0
LINE
8
0
6
CONTINUOUS
10
290.945
20
-71.05
11
290.945
21
-63.9
0
LINE
8
0
6
CONTINUOUS
10
290.845
20
-63.8
11
282.105
21
-63.8
0
LINE
8
0
6
CONTINUOUS
10
282.005
20
-63.9
11
282.005
21
-71.05
0
ARC
8
0
6
CONTINUOUS
10
290.845
20
-71.05
40
0.1
50
270
51
0
0
ARC
8
0
6
CONTINUOUS
10
290.845
20
-63.9
40
0.1
50
0
51
90
0
ARC
8
0
6
CONTINUOUS
10
282.105
20
-63.9
40
0.1
50
90
51
180
0
ARC
8
0
6
CONTINUOUS
10
282.105
20
-71.05
40
0.1
50
180
51
270
0
LINE
8
0
6
CONTINUOUS
10
279.975
20
-102.5
11
292.975
21
-102.5
0
LINE
8
0
6
CONTINUOUS
10
293.475
20
-102
11
293.475
21
-67
0
LINE
8
0
6
CONTINUOUS
10
292.975
20
-66.5
11
279.975
21
-66.5
0
LINE
8
0
6
CONTINUOUS
10
279.475
20
-67
11
279.475
21
-102
0
ARC
8
0
6
CONTINUOUS
10
292.975
20
-102
40
0.5
50
270
51
0
0
ARC
8
0
6
CONTINUOUS
10
292.975
20
-67
40
0.5
50
0
51
90
0
ARC
8
0
6
CONTINUOUS
10
279.975
20
-67
40
0.5
50
90
51
180
0
ARC
8
0
6
CONTINUOUS
10
279.975
20
-102
40
0.5
50
180
51
270
0
LINE
8
0
6
CONTINUOUS
10
280.165
20
-102.53
11
292.785
21
-102.53
0
LINE
8
0
6
CONTINUOUS
10
292.885
20
-102.43
11
292.885
21
-99.97
0
LINE
8
0
6
CONTINUOUS
10
292.785
20
-99.87
11
280.165
21
-99.87
0
LINE
8
0
6
CONTINUOUS
10
280.065
20
-99.97
11
280.065
21
-102.43
0
ARC
8
0
6
CONTINUOUS
10
292.785
20
-102.43
40
0.1
50
270
51
0
0
ARC
8
0
6
CONTINUOUS
10
292.785
20
-99.97
40
0.1
50
0
51
90
0
ARC
8
0
6
CONTINUOUS
10
280.165
20
-99.97
40
0.1
50
90
51
180
0
ARC
8
0
6
CONTINUOUS
10
280.165
20
-102.43
40
0.1
50
180
51
270
0
LINE
8
0
6
CONTINUOUS
10
281.075
20
-97.55
11
291.875
21
-97.55
0
LINE
8
0
6
CONTINUOUS
10
291.875
20
-97.55
11
291.875
21
-72.95
0
LINE
8
0
6
CONTINUOUS
10
291.875
20
-72.95
11
281.075
21
-72.95
0
LINE
8
0
6
CONTINUOUS
10
281.075
20
-72.95
11
281.075
21
-97.55
0
LINE
8
0
6
CONTINUOUS
10
277.475
20
-127.25
11
295.475
21
-127.25
0
LINE
8
0
6
CONTINUOUS
10
295.975
20
-126.75
11
295.975
21
-108.75
0
LINE
8
0
6
CONTINUOUS
10
295.475
20
-108.25
11
277.475
21
-108.25
0
LINE
8
0
6
CONTINUOUS
10
276.975
20
-108.75
11
276.975
21
-126.75
0
ARC
8
0
6
CONTINUOUS
10
295.475
20
-126.75
40
0.5
50
270
51
0
0
ARC
8
0
6
CONTINUOUS
10
295.475
20
-108.75
40
0.5
50
0
51
90
0
ARC
8
0
6
CONTINUOUS
10
277.475
20
-108.75
40
0.5
50
90
51
180
0
ARC
8
0
6
CONTINUOUS
10
277.475
20
-126.75
40
0.5
50
180
51
270
0
LINE
8
0
6
CONTINUOUS
10
278.125
20
-120.75
11
282.125
21
-120.75
0
LINE
8
0
6
CONTINUOUS
10
282.125
20
-120.75
11
282.125
21
-114.75
0
LINE
8
0
6
CONTINUOUS
10
282.125
20
-114.75
11
278.125
21
-114.75
0
LINE
8
0
6
CONTINUOUS
10
278.125
20
-114.75
11
278.125
21
-120.75
0
LINE
8
0
6
CONTINUOUS
10
279.475
20
-124.75
11
293.475
21
-124.75
0
LINE
8
0
6
CONTINUOUS
10
293.475
20
-124.75
11
293.475
21
-110.75
0
LINE
8
0
6
CONTINUOUS
10
293.475
20
-110.75
11
279.475
21
-110.75
0
LINE
8
0
6
CONTINUOUS
10
279.475
20
-110.75
11
279.475
21
-124.75
0
ENDSEC
0
EOF