0
SECTION
2
HEADER
9
$INSUNITS
70
4
0
ENDSEC
0
SECTION
2
TABLES
0
TABLE
2
LTYPE
0
LTYPE
72
65
70
0
2
CONTINUOUS
3
______
73
0
40
0
0
LTYPE
72
65
70
0
2
DASHED
3
_ _ _ 
73
2
40
7.5
49
5
49
-2.5
0
LTYPE
72
65
70
0
2
DOTTED
3
. . . 
73
2
40
1.5
49
0.5
49
-1
0
ENDTAB
0
TABLE
2
LAYER
0
ENDTAB
0
ENDSEC
0
SECTION
2
ENTITIES
0
LINE
8
0
6
CONTINUOUS
10
142.875
20
-141
11
161.875
21
-141
0
LINE
8
0
6
CONTINUOUS
10
161.875
20
-141
11
161.875
21
-159
0
LINE
8
0
6
CONTINUOUS
10
161.875
20
-159
11
142.875
21
-159
0
LINE
8
0
6
CONTINUOUS
10
142.875
20
-159
11
142.875
21
-141
0
LINE
8
0
6
CONTINUOUS
10
138.125
20
-122
11
161.875
21
-122
0
LINE
8
0
6
CONTINUOUS
10
161.875
20
-122
11
161.875
21
-140
0
LINE
8
0
6
CONTINUOUS
10
161.875
20
-140
11
138.125
21
-140
0
LINE
8
0
6
CONTINUOUS
10
138.125
20
-140
11
138.125
21
-122
0
LINE
8
0
6
CONTINUOUS
10
138.125
20
-103
11
161.875
21
-103
0
LINE
8
0
6
CONTINUOUS
10
161.875
20
-103
11
161.875
21
-121
0
LINE
8
0
6
CONTINUOUS
10
161.875
20
-121
11
138.125
21
-121
0
LINE
8
0
6
CONTINUOUS
10
138.125
20
-121
11
138.125
21
-103
0
LINE
8
0
6
CONTINUOUS
10
138.125
20
-84
11
161.875
21
-84
0
LINE
8
0
6
CONTINUOUS
10
161.875
20
-84
11
161.875
21
-102
0
LINE
8
0
6
CONTINUOUS
10
161.875
20
-102
11
138.125
21
-102
0
LINE
8
0
6
CONTINUOUS
10
138.125
20
-102
11
138.125
21
-84
0
LINE
8
0
6
CONTINUOUS
10
138.125
20
-65
11
161.875
21
-65
0
LINE
8
0
6
CONTINUOUS
10
161.875
20
-65
11
161.875
21
-83
0
LINE
8
0
6
CONTINUOUS
10
161.875
20
-83
11
138.125
21
-83
0
LINE
8
0
6
CONTINUOUS
10
138.125
20
-83
11
138.125
21
-65
0
LINE
8
0
6
CONTINUOUS
10
162.375
20
-141
11
180.375
21
-141
0
LINE
8
0
6
CONTINUOUS
10
180.375
20
-141
11
180.375
21
-159
0
LINE
8
0
6
CONTINUOUS
10
180.375
20
-159
11
162.375
21
-159
0
LINE
8
0
6
CONTINUOUS
10
162.375
20
-159
11
162.375
21
-141
0
LINE
8
0
6
CONTINUOUS
10
162.375
20
-122
11
180.375
21
-122
0
LINE
8
0
6
CONTINUOUS
10
180.375
20
-122
11
180.375
21
-140
0
LINE
8
0
6
CONTINUOUS
10
180.375
20
-140
11
162.375
21
-140
0
LINE
8
0
6
CONTINUOUS
10
162.375
20
-140
11
162.375
21
-122
0
LINE
8
0
6
CONTINUOUS
10
162.375
20
-103
11
180.375
21
-103
0
LINE
8
0
6
CONTINUOUS
10
180.375
20
-103
11
180.375
21
-121
0
LINE
8
0
6
CONTINUOUS
10
180.375
20
-121
11
162.375
21
-121
0
LINE
8
0
6
CONTINUOUS
10
162.375
20
-121
11
162.375
21
-103
0
LINE
8
0
6
CONTINUOUS
10
162.375
20
-84
11
180.375
21
-84
0
LINE
8
0
6
CONTINUOUS
10
180.375
20
-84
11
180.375
21
-102
0
LINE
8
0
6
CONTINUOUS
10
180.375
20
-102
11
162.375
21
-102
0
LINE
8
0
6
CONTINUOUS
10
162.375
20
-102
11
162.375
21
-84
0
LINE
8
0
6
CONTINUOUS
10
162.375
20
-65
11
180.375
21
-65
0
LINE
8
0
6
CONTINUOUS
10
180.375
20
-65
11
180.375
21
-83
0
LINE
8
0
6
CONTINUOUS
10
180.375
20
-83
11
162.375
21
-83
0
LINE
8
0
6
CONTINUOUS
10
162.375
20
-83
11
162.375
21
-65
0
LINE
8
0
6
CONTINUOUS
10
181.375
20
-136.25
11
199.375
21
-136.25
0
LINE
8
0
6
CONTINUOUS
10
199.375
20
-136.25
11
199.375
21
-154.25
0
LINE
8
0
6
CONTINUOUS
10
199.375
20
-154.25
11
181.375
21
-154.25
0
LINE
8
0
6
CONTINUOUS
10
181.375
20
-154.25
11
181.375
21
-136.25
0
LINE
8
0
6
CONTINUOUS
10
181.375
20
-117.25
11
199.375
21
-117.25
0
LINE
8
0
6
CONTINUOUS
10
199.375
20
-117.25
11
199.375
21
-135.25
0
LINE
8
0
6
CONTINUOUS
10
199.375
20
-135.25
11
181.375
21
-135.25
0
LINE
8
0
6
CONTINUOUS
10
181.375
20
-135.25
11
181.375
21
-117.25
0
LINE
8
0
6
CONTINUOUS
10
181.375
20
-98.25
11
199.375
21
-98.25
0
LINE
8
0
6
CONTINUOUS
10
199.375
20
-98.25
11
199.375
21
-116.25
0
LINE
8
0
6
CONTINUOUS
10
199.375
20
-116.25
11
181.375
21
-116.25
0
LINE
8
0
6
CONTINUOUS
10
181.375
20
-116.25
11
181.375
21
-98.25
0
LINE
8
0
6
CONTINUOUS
10
181.375
20
-79.25
11
199.375
21
-79.25
0
LINE
8
0
6
CONTINUOUS
10
199.375
20
-79.25
11
199.375
21
-97.25
0
LINE
8
0
6
CONTINUOUS
10
199.375
20
-97.25
11
181.375
21
-97.25
0
LINE
8
0
6
CONTINUOUS
10
181.375
20
-97.25
11
181.375
21
-79.25
0
LINE
8
0
6
CONTINUOUS
10
181.375
20
-60.25
11
199.375
21
-60.25
0
LINE
8
0
6
CONTINUOUS
10
199.375
20
-60.25
11
199.375
21
-78.25
0
LINE
8
0
6
CONTINUOUS
10
199.375
20
-78.25
11
181.375
21
-78.25
0
LINE
8
0
6
CONTINUOUS
10
181.375
20
-78.25
11
181.375
21
-60.25
0
LINE
8
0
6
CONTINUOUS
10
200.375
20
-133.875
11
218.375
21
-133.875
0
LINE
8
0
6
CONTINUOUS
10
218.375
20
-133.875
11
218.375
21
-151.875
0
LINE
8
0
6
CONTINUOUS
10
218.375
20
-151.875
11
200.375
21
-151.875
0
LINE
8
0
6
CONTINUOUS
10
200.375
20
-151.875
11
200.375
21
-133.875
0
LINE
8
0
6
CONTINUOUS
10
200.375
20
-114.875
11
218.375
21
-114.875
0
LINE
8
0
6
CONTINUOUS
10
218.375
20
-114.875
11
218.375
21
-132.875
0
LINE
8
0
6
CONTINUOUS
10
218.375
20
-132.875
11
200.375
21
-132.875
0
LINE
8
0
6
CONTINUOUS
10
200.375
20
-132.875
11
200.375
21
-114.875
0
LINE
8
0
6
CONTINUOUS
10
200.375
20
-95.875
11
218.375
21
-95.875
0
LINE
8
0
6
CONTINUOUS
10
218.375
20
-95.875
11
218.375
21
-113.875
0
LINE
8
0
6
CONTINUOUS
10
218.375
20
-113.875
11
200.375
21
-113.875
0
LINE
8
0
6
CONTINUOUS
10
200.375
20
-113.875
11
200.375
21
-95.875
0
LINE
8
0
6
CONTINUOUS
10
200.375
20
-76.875
11
218.375
21
-76.875
0
LINE
8
0
6
CONTINUOUS
10
218.375
20
-76.875
11
218.375
21
-94.875
0
LINE
8
0
6
CONTINUOUS
10
218.375
20
-94.875
11
200.375
21
-94.875
0
LINE
8
0
6
CONTINUOUS
10
200.375
20
-94.875
11
200.375
21
-76.875
0
LINE
8
0
6
CONTINUOUS
10
200.375
20
-57.875
11
218.375
21
-57.875
0
LINE
8
0
6
CONTINUOUS
10
218.375
20
-57.875
11
218.375
21
-75.875
0
LINE
8
0
6
CONTINUOUS
10
218.375
20
-75.875
11
200.375
21
-75.875
0
LINE
8
0
6
CONTINUOUS
10
200.375
20
-75.875
11
200.375
21
-57.875
0
LINE
8
0
6
CONTINUOUS
10
219.375
20
-117.25
11
237.375
21
-117.25
0
LINE
8
0
6
CONTINUOUS
10
237.375
20
-117.25
11
237.375
21
-135.25
0
LINE
8
0
6
CONTINUOUS
10
237.375
20
-135.25
11
219.375
21
-135.25
0
LINE
8
0
6
CONTINUOUS
10
219.375
20
-135.25
11
219.375
21
-117.25
0
LINE
8
0
6
CONTINUOUS
10
219.375
20
-98.25
11
237.375
21
-98.25
0
LINE
8
0
6
CONTINUOUS
10
237.375
20
-98.25
11
237.375
21
-116.25
0
LINE
8
0
6
CONTINUOUS
10
237.375
20
-116.25
11
219.375
21
-116.25
0
LINE
8
0
6
CONTINUOUS
10
219.375
20
-116.25
11
219.375
21
-98.25
0
LINE
8
0
6
CONTINUOUS
10
219.375
20
-79.25
11
237.375
21
-79.25
0
LINE
8
0
6
CONTINUOUS
10
237.375
20
-79.25
11
237.375
21
-97.25
0
LINE
8
0
6
CONTINUOUS
10
237.375
20
-97.25
11
219.375
21
-97.25
0
LINE
8
0
6
CONTINUOUS
10
219.375
20
-97.25
11
219.375
21
-79.25
0
LINE
8
0
6
CONTINUOUS
10
219.375
20
-60.25
11
237.375
21
-60.25
0
LINE
8
0
6
CONTINUOUS
10
237.375
20
-60.25
11
237.375
21
-78.25
0
LINE
8
0
6
CONTINUOUS
10
237.375
20
-78.25
11
219.375
21
-78.25
0
LINE
8
0
6
CONTINUOUS
10
219.375
20
-78.25
11
219.375
21
-60.25
0
LINE
8
0
6
CONTINUOUS
10
238.375
20
-119.625
11
256.375
21
-119.625
0
LINE
8
0
6
CONTINUOUS
10
256.375
20
-119.625
11
256.375
21
-137.625
0
LINE
8
0
6
CONTINUOUS
10
256.375
20
-137.625
11
238.375
21
-137.625
0
LINE
8
0
6
CONTINUOUS
10
238.375
20
-137.625
11
238.375
21
-119.625
0
LINE
8
0
6
CONTINUOUS
10
238.375
20
-100.625
11
256.375
21
-100.625
0
LINE
8
0
6
CONTINUOUS
10
256.375
20
-100.625
11
256.375
21
-118.625
0
LINE
8
0
6
CONTINUOUS
10
256.375
20
-118.625
11
238.375
21
-118.625
0
LINE
8
0
6
CONTINUOUS
10
238.375
20
-118.625
11
238.375
21
-100.625
0
LINE
8
0
6
CONTINUOUS
10
238.375
20
-81.625
11
256.375
21
-81.625
0
LINE
8
0
6
CONTINUOUS
10
256.375
20
-81.625
11
256.375
21
-99.625
0
LINE
8
0
6
CONTINUOUS
10
256.375
20
-99.625
11
238.375
21
-99.625
0
LINE
8
0
6
CONTINUOUS
10
238.375
20
-99.625
11
238.375
21
-81.625
0
LINE
8
0
6
CONTINUOUS
10
238.375
20
-62.625
11
256.375
21
-62.625
0
LINE
8
0
6
CONTINUOUS
10
256.375
20
-62.625
11
256.375
21
-80.625
0
LINE
8
0
6
CONTINUOUS
10
256.375
20
-80.625
11
238.375
21
-80.625
0
LINE
8
0
6
CONTINUOUS
10
238.375
20
-80.625
11
238.375
21
-62.625
0
LINE
8
0
6
CONTINUOUS
10
252.125
20
-95.875
11
280.625
21
-95.875
0
LINE
8
0
6
CONTINUOUS
10
280.625
20
-95.875
11
280.625
21
-113.875
0
LINE
8
0
6
CONTINUOUS
10
280.625
20
-113.875
11
252.125
21
-113.875
0
LINE
8
0
6
CONTINUOUS
10
252.125
20
-113.875
11
252.125
21
-95.875
0
LINE
8
0
6
CONTINUOUS
10
257.375
20
-72.125
11
275.375
21
-72.125
0
LINE
8
0
6
CONTINUOUS
10
275.375
20
-72.125
11
275.375
21
-90.125
0
LINE
8
0
6
CONTINUOUS
10
275.375
20
-90.125
11
257.375
21
-90.125
0
LINE
8
0
6
CONTINUOUS
10
257.375
20
-90.125
11
257.375
21
-72.125
0
LINE
8
0
6
CONTINUOUS
10
228.7340022
20
-135.8581914
11
251.6747406
21
-142.0051437
0
LINE
8
0
6
CONTINUOUS
10
251.6747406
20
-142.0051437
11
247.0159978
21
-159.3918086
0
LINE
8
0
6
CONTINUOUS
10
247.0159978
20
-159.3918086
11
224.0752594
21
-153.2448563
0
LINE
8
0
6
CONTINUOUS
10
224.0752594
20
-153.2448563
11
228.7340022
21
-135.8581914
0
LINE
8
0
6
CONTINUOUS
10
255.3744898
20
-145.8199933
11
270.962947
21
-154.8199933
0
LINE
8
0
6
CONTINUOUS
10
270.962947
20
-154.8199933
11
261.962947
21
-170.4084505
0
LINE
8
0
6
CONTINUOUS
10
261.962947
20
-170.4084505
11
246.3744898
21
-161.4084505
0
LINE
8
0
6
CONTINUOUS
10
246.3744898
20
-161.4084505
11
255.3744898
21
-145.8199933
0
LINE
8
0
6
CONTINUOUS
10
262.7028564
20
-122.6268899
11
287.3845804
21
-136.8768899
0
LINE
8
0
6
CONTINUOUS
10
287.3845804
20
-136.8768899
11
278.3845804
21
-152.4653471
0
LINE
8
0
6
CONTINUOUS
10
278.3845804
20
-152.4653471
11
253.7028564
21
-138.2153471
0
LINE
8
0
6
CONTINUOUS
10
253.7028564
20
-138.2153471
11
262.7028564
21
-122.6268899
0
LINE
8
0
6
CONTINUOUS
10
271.8289725
20
-155.3199933
11
287.4174297
21
-164.3199933
0
LINE
8
0
6
CONTINUOUS
10
287.4174297
20
-164.3199933
11
278.4174297
21
-179.9084505
0
LINE
8
0
6
CONTINUOUS
10
278.4174297
20
-179.9084505
11
262.8289725
21
-170.9084505
0
LINE
8
0
6
CONTINUOUS
10
262.8289725
20
-170.9084505
11
271.8289725
21
-155.3199933
0
LINE
8
0
6
CONTINUOUS
10
279.1573391
20
-132.1268899
11
303.8390631
21
-146.3768899
0
LINE
8
0
6
CONTINUOUS
10
303.8390631
20
-146.3768899
11
294.8390631
21
-161.9653471
0
LINE
8
0
6
CONTINUOUS
10
294.8390631
20
-161.9653471
11
270.1573391
21
-147.7153471
0
LINE
8
0
6
CONTINUOUS
10
270.1573391
20
-147.7153471
11
279.1573391
21
-132.1268899
0
LINE
8
0
6
CONTINUOUS
10
277.475
20
-79.125
11
295.475
21
-79.125
0
LINE
8
0
6
CONTINUOUS
10
295.475
20
-79.125
11
295.475
21
-97.125
0
LINE
8
0
6
CONTINUOUS
10
295.475
20
-97.125
11
277.475
21
-97.125
0
LINE
8
0
6
CONTINUOUS
10
277.475
20
-97.125
11
277.475
21
-79.125
0
LINE
8
0
6
CONTINUOUS
10
277.475
20
-82.625
11
295.475
21
-82.625
0
LINE
8
0
6
CONTINUOUS
10
295.475
20
-82.625
11
295.475
21
-100.625
0
LINE
8
0
6
CONTINUOUS
10
295.475
20
-100.625
11
277.475
21
-100.625
0
LINE
8
0
6
CONTINUOUS
10
277.475
20
-100.625
11
277.475
21
-82.625
0
LINE
8
0
6
CONTINUOUS
10
151.6875
20
-74.5
11
169.6875
21
-74.5
0
LINE
8
0
6
CONTINUOUS
10
169.6875
20
-74.5
11
169.6875
21
-92.5
0
LINE
8
0
6
CONTINUOUS
10
169.6875
20
-92.5
11
151.6875
21
-92.5
0
LINE
8
0
6
CONTINUOUS
10
151.6875
20
-92.5
11
151.6875
21
-74.5
0
LINE
8
0
6
CONTINUOUS
10
228.875
20
-70.9375
11
246.875
21
-70.9375
0
LINE
8
0
6
CONTINUOUS
10
246.875
20
-70.9375
11
246.875
21
-88.9375
0
LINE
8
0
6
CONTINUOUS
10
246.875
20
-88.9375
11
228.875
21
-88.9375
0
LINE
8
0
6
CONTINUOUS
10
228.875
20
-88.9375
11
228.875
21
-70.9375
0
LINE
8
0
6
CONTINUOUS
10
152.28125
20
-131.5
11
170.28125
21
-131.5
0
LINE
8
0
6
CONTINUOUS
10
170.28125
20
-131.5
11
170.28125
21
-149.5
0
LINE
8
0
6
CONTINUOUS
10
170.28125
20
-149.5
11
152.28125
21
-149.5
0
LINE
8
0
6
CONTINUOUS
10
152.28125
20
-149.5
11
152.28125
21
-131.5
0
LINE
8
0
6
CONTINUOUS
10
228.875
20
-108.9375
11
246.875
21
-108.9375
0
LINE
8
0
6
CONTINUOUS
10
246.875
20
-108.9375
11
246.875
21
-126.9375
0
LINE
8
0
6
CONTINUOUS
10
246.875
20
-126.9375
11
228.875
21
-126.9375
0
LINE
8
0
6
CONTINUOUS
10
228.875
20
-126.9375
11
228.875
21
-108.9375
0
LINE
8
0
6
CONTINUOUS
10
268.3517312
20
-142.342752
11
283.9401883
21
-151.342752
0
LINE
8
0
6
CONTINUOUS
10
283.9401883
20
-151.342752
11
274.9401883
21
-166.9312092
0
LINE
8
0
6
CONTINUOUS
10
274.9401883
20
-166.9312092
11
259.3517312
21
-157.9312092
0
LINE
8
0
6
CONTINUOUS
10
259.3517312
20
-157.9312092
11
268.3517312
21
-142.342752
0
LINE
8
0
6
CONTINUOUS
10
127.125
20
-93.5
11
145.125
21
-93.5
0
LINE
8
0
6
CONTINUOUS
10
145.125
20
-93.5
11
145.125
21
-111.5
0
LINE
8
0
6
CONTINUOUS
10
145.125
20
-111.5
11
127.125
21
-111.5
0
LINE
8
0
6
CONTINUOUS
10
127.125
20
-111.5
11
127.125
21
-93.5
0
LINE
8
0
6
CONTINUOUS
10
151.6875
20
-53.5
11
169.6875
21
-53.5
0
LINE
8
0
6
CONTINUOUS
10
169.6875
20
-53.5
11
169.6875
21
-71.5
0
LINE
8
0
6
CONTINUOUS
10
169.6875
20
-71.5
11
151.6875
21
-71.5
0
LINE
8
0
6
CONTINUOUS
10
151.6875
20
-71.5
11
151.6875
21
-53.5
0
LINE
8
0
6
CONTINUOUS
10
200.375
20
-46.375
11
218.375
21
-46.375
0
LINE
8
0
6
CONTINUOUS
10
218.375
20
-46.375
11
218.375
21
-64.375
0
LINE
8
0
6
CONTINUOUS
10
218.375
20
-64.375
11
200.375
21
-64.375
0
LINE
8
0
6
CONTINUOUS
10
200.375
20
-64.375
11
200.375
21
-46.375
0
LINE
8
0
6
CONTINUOUS
10
238.375
20
-51.125
11
256.375
21
-51.125
0
LINE
8
0
6
CONTINUOUS
10
256.375
20
-51.125
11
256.375
21
-69.125
0
LINE
8
0
6
CONTINUOUS
10
256.375
20
-69.125
11
238.375
21
-69.125
0
LINE
8
0
6
CONTINUOUS
10
238.375
20
-69.125
11
238.375
21
-51.125
0
LINE
8
0
6
CONTINUOUS
10
288.475
20
-95.625
11
306.475
21
-95.625
0
LINE
8
0
6
CONTINUOUS
10
306.475
20
-95.625
11
306.475
21
-113.625
0
LINE
8
0
6
CONTINUOUS
10
306.475
20
-113.625
11
288.475
21
-113.625
0
LINE
8
0
6
CONTINUOUS
10
288.475
20
-113.625
11
288.475
21
-95.625
0
LINE
8
0
6
CONTINUOUS
10
152.875
20
-152.5
11
170.875
21
-152.5
0
LINE
8
0
6
CONTINUOUS
10
170.875
20
-152.5
11
170.875
21
-170.5
0
LINE
8
0
6
CONTINUOUS
10
170.875
20
-170.5
11
152.875
21
-170.5
0
LINE
8
0
6
CONTINUOUS
10
152.875
20
-170.5
11
152.875
21
-152.5
0
LINE
8
0
6
CONTINUOUS
10
200.375
20
-147.75
11
218.375
21
-147.75
0
LINE
8
0
6
CONTINUOUS
10
218.375
20
-147.75
11
218.375
21
-165.75
0
LINE
8
0
6
CONTINUOUS
10
218.375
20
-165.75
11
200.375
21
-165.75
0
LINE
8
0
6
CONTINUOUS
10
200.375
20
-165.75
11
200.375
21
-147.75
0
LINE
8
0
6
CONTINUOUS
10
257.8517312
20
-160.5292854
11
273.4401883
21
-169.5292854
0
LINE
8
0
6
CONTINUOUS
10
273.4401883
20
-169.5292854
11
264.4401883
21
-185.1177426
0
LINE
8
0
6
CONTINUOUS
10
264.4401883
20
-185.1177426
11
248.8517312
21
-176.1177426
0
LINE
8
0
6
CONTINUOUS
10
248.8517312
20
-176.1177426
11
257.8517312
21
-160.5292854
0
LINE
8
0
6
CONTINUOUS
10
287.7257646
20
-150.7859416
11
303.3142218
21
-159.7859416
0
LINE
8
0
6
CONTINUOUS
10
303.3142218
20
-159.7859416
11
294.3142218
21
-175.3743988
0
LINE
8
0
6
CONTINUOUS
10
294.3142218
20
-175.3743988
11
278.7257646
21
-166.3743988
0
LINE
8
0
6
CONTINUOUS
10
278.7257646
20
-166.3743988
11
287.7257646
21
-150.7859416
0
ENDSEC
0
EOF